<svg width="14" height="11" viewBox="0 0 14 11" fill="none" xmlns="http://www.w3.org/2000/svg">
<path fill-rule="evenodd" clip-rule="evenodd" d="M6.16563 3.4342C8.08467 2.32635 10.356 1.99815 12.5101 2.51741C12.6738 2.55903 12.8405 2.46109 12.8837 2.29786L13.3015 0.709524C13.3234 0.626784 13.3114 0.538742 13.2682 0.464879C13.2249 0.391016 13.1541 0.337421 13.0712 0.315957C7.40116 -1.07482 1.64236 2.25002 0.0117783 7.85583C-0.0111156 7.93829 -0.000204274 8.02648 0.0420976 8.10087C0.0843995 8.17527 0.154604 8.22974 0.237176 8.25223L1.8219 8.68442C1.98493 8.72874 2.1532 8.63331 2.19884 8.47064C2.82634 6.34527 4.24645 4.54223 6.16563 3.4342ZM8.06332 6.72124C9.11764 6.11244 10.3606 5.91733 11.5508 6.17381C11.7145 6.21322 11.8797 6.11491 11.9232 5.95224L12.3399 4.36457C12.3619 4.28118 12.3496 4.19241 12.3057 4.11814C12.2618 4.04388 12.19 3.9903 12.1063 3.96941C8.44817 3.12963 4.76249 5.25756 3.66069 8.84549C3.6369 8.92844 3.6474 9.01747 3.68984 9.09261C3.73228 9.16775 3.80311 9.22271 3.88643 9.24516L5.46942 9.67835C5.63203 9.72203 5.7998 9.62806 5.84752 9.46659C6.22023 8.30842 7.00991 7.33001 8.06332 6.72124ZM11.3433 7.77636C11.3881 7.85039 11.4004 7.93962 11.3772 8.02299L10.6553 10.7672C10.6342 10.8478 10.5818 10.9166 10.5096 10.9582C10.4375 10.9999 10.3517 11.0109 10.2714 10.9889L7.53355 10.2421C7.44978 10.2204 7.37867 10.1652 7.337 10.0893C7.29533 10.0135 7.2868 9.92384 7.31343 9.84152C7.87865 8.26941 9.49652 7.33534 11.1406 7.63189C11.2252 7.65006 11.2986 7.70233 11.3433 7.77636Z" fill="#090A0A"/>
</svg>
