<svg width="17" height="17" viewBox="0 0 17 17" fill="none" xmlns="http://www.w3.org/2000/svg">
<path fill-rule="evenodd" clip-rule="evenodd" d="M11.3996 0.142258L10.5303 0.644145C10.0502 0.921329 9.87163 1.5109 10.1315 1.96099L14.2093 9.024C14.4692 9.47409 15.069 9.61426 15.5491 9.33708L16.4184 8.83519C16.8985 8.55801 17.0771 7.96843 16.8172 7.51834L12.7394 0.455334C12.4795 0.00524279 11.8797 -0.134926 11.3996 0.142258ZM7.18768 4.8921L8.05697 4.39022C8.53707 4.11303 9.14198 4.26196 9.40808 4.72285L12.4595 10.0082C12.7256 10.469 12.5522 11.0674 12.0721 11.3446L11.2028 11.8464C10.7227 12.1236 10.1178 11.9747 9.85167 11.5138L6.8002 6.22851C6.5341 5.76762 6.70758 5.16929 7.18768 4.8921ZM4.71418 8.6383L3.84488 9.14018C3.36479 9.41737 3.20029 10.0313 3.47748 10.5114L5.48502 13.9885C5.76221 14.4686 6.37611 14.6331 6.8562 14.3559L7.7255 13.8541C8.20559 13.5769 8.37009 12.963 8.0929 12.4829L6.08536 9.0057C5.80817 8.52561 5.19427 8.36111 4.71418 8.6383ZM1.37148 12.8863L0.50219 13.3882C0.0220936 13.6654 -0.1424 14.2793 0.134784 14.7594L1.13856 16.498C1.41574 16.9781 2.02964 17.1426 2.50974 16.8654L3.37903 16.3635C3.85913 16.0863 4.02362 15.4724 3.74644 14.9923L2.74266 13.2537C2.46548 12.7736 1.85158 12.6091 1.37148 12.8863Z" fill="#090A0A"/>
</svg>
