<svg width="14" height="11" viewBox="0 0 14 11" fill="none" xmlns="http://www.w3.org/2000/svg">
<path fill-rule="evenodd" clip-rule="evenodd" d="M6.16566 3.43416C8.08471 2.32631 10.356 1.9981 12.5102 2.51736C12.6739 2.55898 12.8405 2.46104 12.8838 2.29781L13.3016 0.709467C13.3235 0.626727 13.3115 0.538684 13.2682 0.46482C13.225 0.390957 13.1541 0.337362 13.0713 0.315897C7.4012 -1.07489 1.64237 2.24998 0.0117783 7.85581C-0.0111157 7.93828 -0.000204275 8.02646 0.0420978 8.10086C0.0843999 8.17525 0.154605 8.22972 0.237178 8.25222L1.82191 8.68441C1.98494 8.72873 2.15321 8.6333 2.19885 8.47063C2.82636 6.34524 4.24647 4.54219 6.16566 3.43416ZM8.06336 6.72122C9.11769 6.11241 10.3607 5.9173 11.5508 6.17379C11.7145 6.2132 11.8798 6.11488 11.9233 5.95222L12.3399 4.36454C12.362 4.28114 12.3497 4.19237 12.3058 4.11811C12.2619 4.04384 12.1901 3.99026 12.1064 3.96937C8.44822 3.12959 4.76251 5.25753 3.66071 8.84548C3.63692 8.92843 3.64742 9.01746 3.68986 9.0926C3.7323 9.16774 3.80313 9.2227 3.88645 9.24515L5.46945 9.67834C5.63206 9.72202 5.79984 9.62806 5.84756 9.46658C6.22026 8.3084 7.00995 7.32999 8.06336 6.72122ZM11.3434 7.77634C11.3882 7.85038 11.4004 7.93961 11.3773 8.02297L10.6554 10.7672C10.6343 10.8478 10.5818 10.9166 10.5097 10.9582C10.4375 10.9999 10.3518 11.0109 10.2714 10.9889L7.53359 10.2421C7.44982 10.2204 7.37871 10.1652 7.33704 10.0893C7.29537 10.0135 7.28684 9.92384 7.31347 9.84151C7.8787 8.2694 9.49658 7.33532 11.1407 7.63187C11.2253 7.65004 11.2986 7.70231 11.3434 7.77634Z" fill="#090A0A"/>
</svg>
