<svg width="31" height="31" viewBox="0 0 31 31" fill="none" xmlns="http://www.w3.org/2000/svg">
<g clip-path="url(#clip0_86_163)">
<path d="M26.2456 14.9407L27.6639 17.3973C27.7965 17.6249 27.8801 17.8776 27.9094 18.1393C27.9387 18.401 27.913 18.6659 27.8339 18.9171C27.7549 19.1683 27.6243 19.4003 27.4504 19.5981C27.2766 19.7958 27.0633 19.9551 26.8243 20.0658C24.1464 21.2468 21.2288 21.7832 18.306 21.6319C15.6015 21.517 12.9556 20.808 10.556 19.5553C7.93869 18.218 5.67319 16.283 3.94304 13.907C3.79183 13.6924 3.68698 13.4487 3.63515 13.1913C3.58332 12.9339 3.58564 12.6685 3.64198 12.4121C3.69832 12.1557 3.80743 11.9138 3.96238 11.7019C4.11732 11.4899 4.3147 11.3125 4.54195 11.1811L6.99858 9.76272C7.39373 9.52936 7.86025 9.44766 8.31119 9.53283C8.76212 9.61799 9.16671 9.86423 9.44952 10.2256C10.0071 10.9519 10.6451 11.6128 11.3512 12.1957C11.6306 12.4252 11.8384 12.73 11.9499 13.0739C12.0614 13.4179 12.0719 13.7866 11.9803 14.1363L11.5408 15.7767C13.8901 17.1538 16.5676 17.8712 19.2907 17.8533L19.7303 16.2129C19.8258 15.8642 20.0193 15.5502 20.2878 15.3081C20.5563 15.066 20.8887 14.9059 21.2454 14.8469C22.1484 14.6951 23.0313 14.4418 23.8774 14.0916C24.3075 13.918 24.7865 13.9086 25.2231 14.0652C25.6598 14.2218 26.0237 14.5333 26.2456 14.9407Z" stroke="white" stroke-width="1.5" stroke-linecap="round" stroke-linejoin="round"/>
</g>
<defs>
<clipPath id="clip0_86_163">
<rect width="22" height="22" fill="white" transform="translate(0 11.3467) scale(1.03152) rotate(-30)"/>
</clipPath>
</defs>
</svg>
