<svg width="27" height="22" viewBox="0 0 27 22" fill="none" xmlns="http://www.w3.org/2000/svg">
<path opacity="0.35" d="M0.797756 13.7039C0.194155 12.6585 0.552359 11.3216 1.59783 10.718L18.7803 0.797694C19.8258 0.194092 21.1626 0.552297 21.7663 1.59777L25.6335 8.29604C26.2371 9.3415 25.8789 10.6783 24.8334 11.2819L7.65091 21.2023C6.60544 21.8059 5.26861 21.4477 4.665 20.4022L0.797756 13.7039Z" stroke="white"/>
<path opacity="0.4" d="M23.9478 3.05628L25.9655 6.55103C26.4977 5.84912 26.5574 4.89661 26.1169 4.13376C25.6765 3.37092 24.8218 2.94634 23.9478 3.05628Z" fill="white"/>
<path d="M2.87498 13.6696C2.50354 13.0262 2.72397 12.2036 3.36734 11.8321L18.6859 2.98791C19.3293 2.61647 20.152 2.8369 20.5234 3.48027L23.3801 8.42825C23.7516 9.07161 23.5312 9.89428 22.8878 10.2657L7.56919 19.1099C6.92582 19.4814 6.10315 19.2609 5.7317 18.6176L2.87498 13.6696Z" fill="white"/>
</svg>
