<svg width="28" height="28" viewBox="0 0 28 28" fill="none" xmlns="http://www.w3.org/2000/svg">
<g clip-path="url(#clip0_86_345)">
<path d="M23.706 13.4949L24.9871 15.7138C25.1069 15.9193 25.1824 16.1476 25.2088 16.384C25.2353 16.6204 25.212 16.8597 25.1407 17.0866C25.0693 17.3134 24.9513 17.5229 24.7942 17.7016C24.6372 17.8802 24.4446 18.0241 24.2287 18.124C21.81 19.1908 19.1747 19.6753 16.5347 19.5386C14.092 19.4348 11.7021 18.7944 9.53472 17.663C7.17068 16.4551 5.12442 14.7073 3.56169 12.5613C3.42512 12.3674 3.33042 12.1473 3.2836 11.9148C3.23678 11.6823 3.23889 11.4427 3.28977 11.211C3.34066 10.9794 3.43921 10.7609 3.57916 10.5695C3.71911 10.3781 3.89739 10.2179 4.10265 10.0991L6.32155 8.81802C6.67846 8.60725 7.09984 8.53345 7.50714 8.61037C7.91444 8.6873 8.27987 8.90971 8.53531 9.23614C9.03895 9.89216 9.61517 10.4891 10.253 11.0156C10.5054 11.2229 10.693 11.4981 10.7937 11.8088C10.8944 12.1195 10.904 12.4525 10.8212 12.7684L10.4242 14.2501C12.5462 15.4939 14.9646 16.1419 17.4242 16.1257L17.8212 14.644C17.9075 14.3291 18.0822 14.0454 18.3248 13.8267C18.5673 13.6081 18.8675 13.4635 19.1897 13.4102C20.0053 13.2731 20.8028 13.0443 21.567 12.728C21.9555 12.5712 22.3881 12.5627 22.7825 12.7041C23.1769 12.8456 23.5056 13.127 23.706 13.4949Z" stroke="white" stroke-width="1.5" stroke-linecap="round" stroke-linejoin="round"/>
</g>
<defs>
<clipPath id="clip0_86_345">
<rect width="20" height="20" fill="white" transform="translate(0 10.2487) scale(1.02487) rotate(-30)"/>
</clipPath>
</defs>
</svg>
