<svg width="110" height="96" viewBox="0 0 110 96" fill="none" xmlns="http://www.w3.org/2000/svg">
<rect width="93.75" height="56" transform="translate(0 47.1834) scale(1.00658) rotate(-30)" fill="white"/>
<g clip-path="url(#clip0_86_253)">
<path d="M66.5665 51.7563L65.5599 50.0128C65.026 49.088 64.1465 48.4132 63.1151 48.1368C62.0836 47.8605 60.9846 48.0052 60.0598 48.5391L53.086 52.5654C52.1613 53.0993 51.4864 53.9787 51.2101 55.0102C50.9337 56.0417 51.0784 57.1407 51.6123 58.0655L52.6189 59.8089" stroke="#979C9E" stroke-width="1.5" stroke-linecap="round" stroke-linejoin="round"/>
<path d="M54.5598 47.0653C56.4855 45.9535 57.1453 43.491 56.0335 41.5653C54.9217 39.6395 52.4592 38.9797 50.5334 40.0916C48.6077 41.2034 47.9479 43.6658 49.0597 45.5916C50.1716 47.5174 52.634 48.1772 54.5598 47.0653Z" stroke="#979C9E" stroke-width="1.5" stroke-linecap="round" stroke-linejoin="round"/>
</g>
<defs>
<clipPath id="clip0_86_253">
<rect width="24" height="24" fill="white" transform="translate(38.5631 43.5159) scale(1.00658) rotate(-30)"/>
</clipPath>
</defs>
</svg>
