<svg width="132" height="132" viewBox="0 0 132 132" fill="none" xmlns="http://www.w3.org/2000/svg">
<g clip-path="url(#clip0_86_742)">
<path d="M83.6845 0L0 48.3153L48.3153 132L132 83.6845L83.6845 0Z" fill="white"/>
<path d="M13.9075 49.2122L10.5601 51.1448L12.4927 54.4921L15.8401 52.5595L13.9075 49.2122Z" fill="black"/>
<path d="M17.2545 47.2796L13.9072 49.2122L15.8398 52.5596L19.1871 50.627L17.2545 47.2796Z" fill="black"/>
<path d="M20.6021 45.347L17.2547 47.2796L19.1873 50.627L22.5347 48.6943L20.6021 45.347Z" fill="black"/>
<path d="M23.9496 43.4143L20.6022 45.3469L22.5348 48.6943L25.8822 46.7617L23.9496 43.4143Z" fill="black"/>
<path d="M27.2971 41.4818L23.9497 43.4144L25.8823 46.7618L29.2297 44.8292L27.2971 41.4818Z" fill="black"/>
<path d="M30.6441 39.5491L27.2968 41.4817L29.2294 44.8291L32.5768 42.8965L30.6441 39.5491Z" fill="black"/>
<path d="M33.9917 37.6165L30.6443 39.5491L32.5769 42.8965L35.9243 40.9638L33.9917 37.6165Z" fill="black"/>
<path d="M47.3813 29.8861L44.0339 31.8187L45.9665 35.1661L49.3139 33.2335L47.3813 29.8861Z" fill="black"/>
<path d="M54.0758 26.0209L50.7285 27.9535L52.6611 31.3009L56.0085 29.3683L54.0758 26.0209Z" fill="black"/>
<path d="M60.7709 22.1556L57.4235 24.0882L59.3561 27.4356L62.7035 25.503L60.7709 22.1556Z" fill="black"/>
<path d="M64.1179 20.2231L60.7706 22.1557L62.7032 25.5031L66.0506 23.5704L64.1179 20.2231Z" fill="black"/>
<path d="M67.4655 18.2904L64.1181 20.223L66.0507 23.5704L69.3981 21.6378L67.4655 18.2904Z" fill="black"/>
<path d="M70.813 16.3578L67.4656 18.2904L69.3982 21.6377L72.7456 19.7051L70.813 16.3578Z" fill="black"/>
<path d="M74.16 14.4252L70.8127 16.3578L72.7453 19.7052L76.0926 17.7726L74.16 14.4252Z" fill="black"/>
<path d="M77.5076 12.4926L74.1602 14.4252L76.0928 17.7726L79.4402 15.84L77.5076 12.4926Z" fill="black"/>
<path d="M80.8551 10.56L77.5077 12.4927L79.4403 15.84L82.7877 13.9074L80.8551 10.56Z" fill="black"/>
<path d="M15.84 52.5596L12.4927 54.4922L14.4253 57.8395L17.7726 55.9069L15.84 52.5596Z" fill="black"/>
<path d="M35.9242 40.9639L32.5768 42.8965L34.5094 46.2439L37.8568 44.3113L35.9242 40.9639Z" fill="black"/>
<path d="M56.0084 29.3682L52.661 31.3008L54.5936 34.6482L57.941 32.7156L56.0084 29.3682Z" fill="black"/>
<path d="M62.7034 25.503L59.3561 27.4356L61.2887 30.783L64.6361 28.8504L62.7034 25.503Z" fill="black"/>
<path d="M82.7876 13.9073L79.4402 15.8399L81.3729 19.1873L84.7202 17.2547L82.7876 13.9073Z" fill="black"/>
<path d="M17.7726 55.907L14.4252 57.8396L16.3578 61.187L19.7052 59.2543L17.7726 55.907Z" fill="black"/>
<path d="M24.4671 52.0418L21.1197 53.9744L23.0524 57.3218L26.3997 55.3892L24.4671 52.0418Z" fill="black"/>
<path d="M27.8146 50.1091L24.4673 52.0417L26.3999 55.3891L29.7473 53.4565L27.8146 50.1091Z" fill="black"/>
<path d="M31.1622 48.1765L27.8148 50.1091L29.7474 53.4565L33.0948 51.5238L31.1622 48.1765Z" fill="black"/>
<path d="M37.8567 44.3113L34.5094 46.2439L36.442 49.5913L39.7894 47.6587L37.8567 44.3113Z" fill="black"/>
<path d="M44.5518 40.4461L41.2044 42.3787L43.137 45.7261L46.4844 43.7935L44.5518 40.4461Z" fill="black"/>
<path d="M51.2464 36.5809L47.899 38.5135L49.8316 41.8609L53.179 39.9283L51.2464 36.5809Z" fill="black"/>
<path d="M64.636 28.8504L61.2886 30.783L63.2212 34.1304L66.5686 32.1978L64.636 28.8504Z" fill="black"/>
<path d="M71.3305 24.9852L67.9832 26.9178L69.9158 30.2652L73.2631 28.3326L71.3305 24.9852Z" fill="black"/>
<path d="M74.6781 23.0526L71.3307 24.9852L73.2633 28.3326L76.6107 26.3999L74.6781 23.0526Z" fill="black"/>
<path d="M78.0256 21.1199L74.6782 23.0525L76.6108 26.3999L79.9582 24.4673L78.0256 21.1199Z" fill="black"/>
<path d="M84.7202 17.2547L81.3728 19.1873L83.3054 22.5347L86.6528 20.6021L84.7202 17.2547Z" fill="black"/>
<path d="M19.7051 59.2544L16.3577 61.187L18.2903 64.5344L21.6377 62.6017L19.7051 59.2544Z" fill="black"/>
<path d="M26.4001 55.3891L23.0528 57.3217L24.9854 60.669L28.3328 58.7364L26.4001 55.3891Z" fill="black"/>
<path d="M29.7472 53.4565L26.3998 55.3891L28.3324 58.7365L31.6798 56.8039L29.7472 53.4565Z" fill="black"/>
<path d="M33.0947 51.5239L29.7473 53.4565L31.6799 56.8039L35.0273 54.8712L33.0947 51.5239Z" fill="black"/>
<path d="M39.7893 47.6587L36.4419 49.5913L38.3745 52.9387L41.7219 51.0061L39.7893 47.6587Z" fill="black"/>
<path d="M59.8739 36.063L56.5266 37.9956L58.4592 41.343L61.8065 39.4104L59.8739 36.063Z" fill="black"/>
<path d="M66.5685 32.1978L63.2211 34.1304L65.1537 37.4778L68.5011 35.5452L66.5685 32.1978Z" fill="black"/>
<path d="M73.2631 28.3325L69.9157 30.2651L71.8483 33.6125L75.1957 31.6799L73.2631 28.3325Z" fill="black"/>
<path d="M76.6106 26.4L73.2632 28.3326L75.1958 31.68L78.5432 29.7473L76.6106 26.4Z" fill="black"/>
<path d="M79.9581 24.4673L76.6107 26.3999L78.5434 29.7473L81.8907 27.8147L79.9581 24.4673Z" fill="black"/>
<path d="M86.6527 20.6021L83.3053 22.5347L85.2379 25.8821L88.5853 23.9495L86.6527 20.6021Z" fill="black"/>
<path d="M21.6376 62.6018L18.2902 64.5344L20.2229 67.8818L23.5702 65.9492L21.6376 62.6018Z" fill="black"/>
<path d="M28.3327 58.7365L24.9853 60.6691L26.9179 64.0165L30.2653 62.0838L28.3327 58.7365Z" fill="black"/>
<path d="M31.6797 56.8039L28.3323 58.7365L30.2649 62.0839L33.6123 60.1513L31.6797 56.8039Z" fill="black"/>
<path d="M35.0272 54.8713L31.6799 56.8039L33.6125 60.1513L36.9599 58.2187L35.0272 54.8713Z" fill="black"/>
<path d="M41.7223 51.0061L38.3749 52.9387L40.3075 56.2861L43.6549 54.3535L41.7223 51.0061Z" fill="black"/>
<path d="M51.7644 45.2082L48.417 47.1409L50.3496 50.4882L53.697 48.5556L51.7644 45.2082Z" fill="black"/>
<path d="M58.459 41.3429L55.1116 43.2755L57.0442 46.6229L60.3916 44.6903L58.459 41.3429Z" fill="black"/>
<path d="M61.8065 39.4104L58.4591 41.343L60.3917 44.6904L63.7391 42.7578L61.8065 39.4104Z" fill="black"/>
<path d="M68.501 35.5452L65.1537 37.4778L67.0863 40.8252L70.4336 38.8926L68.501 35.5452Z" fill="black"/>
<path d="M75.1961 31.6799L71.8487 33.6125L73.7813 36.9599L77.1287 35.0273L75.1961 31.6799Z" fill="black"/>
<path d="M78.5431 29.7474L75.1957 31.68L77.1284 35.0274L80.4757 33.0948L78.5431 29.7474Z" fill="black"/>
<path d="M81.8906 27.8147L78.5433 29.7473L80.4759 33.0947L83.8233 31.1621L81.8906 27.8147Z" fill="black"/>
<path d="M88.5852 23.9495L85.2378 25.8821L87.1704 29.2295L90.5178 27.2969L88.5852 23.9495Z" fill="black"/>
<path d="M23.5706 65.9491L20.2233 67.8817L22.1559 71.229L25.5033 69.2964L23.5706 65.9491Z" fill="black"/>
<path d="M43.6548 54.3535L40.3074 56.2861L42.2401 59.6335L45.5874 57.7009L43.6548 54.3535Z" fill="black"/>
<path d="M53.6969 48.5556L50.3495 50.4883L52.2821 53.8356L55.6295 51.903L53.6969 48.5556Z" fill="black"/>
<path d="M57.0444 46.623L53.6971 48.5556L55.6297 51.903L58.9771 49.9704L57.0444 46.623Z" fill="black"/>
<path d="M60.3915 44.6903L57.0441 46.623L58.9767 49.9703L62.3241 48.0377L60.3915 44.6903Z" fill="black"/>
<path d="M70.4336 38.8925L67.0862 40.8251L69.0188 44.1725L72.3662 42.2399L70.4336 38.8925Z" fill="black"/>
<path d="M90.5182 27.2969L87.1709 29.2295L89.1035 32.5769L92.4509 30.6443L90.5182 27.2969Z" fill="black"/>
<path d="M25.5032 69.2965L22.1558 71.2291L24.0884 74.5764L27.4358 72.6438L25.5032 69.2965Z" fill="black"/>
<path d="M28.8502 67.3639L25.5028 69.2965L27.4354 72.6439L30.7828 70.7113L28.8502 67.3639Z" fill="black"/>
<path d="M32.1977 65.4313L28.8504 67.3639L30.783 70.7113L34.1304 68.7787L32.1977 65.4313Z" fill="black"/>
<path d="M35.5453 63.4986L32.1979 65.4312L34.1305 68.7786L37.4779 66.846L35.5453 63.4986Z" fill="black"/>
<path d="M38.8923 61.5661L35.5449 63.4987L37.4775 66.8461L40.8249 64.9135L38.8923 61.5661Z" fill="black"/>
<path d="M42.2398 59.6334L38.8925 61.566L40.8251 64.9134L44.1724 62.9808L42.2398 59.6334Z" fill="black"/>
<path d="M45.5874 57.7008L42.24 59.6334L44.1726 62.9808L47.52 61.0482L45.5874 57.7008Z" fill="black"/>
<path d="M52.2819 53.8356L48.9345 55.7682L50.8672 59.1156L54.2145 57.183L52.2819 53.8356Z" fill="black"/>
<path d="M58.977 49.9704L55.6296 51.903L57.5622 55.2504L60.9096 53.3178L58.977 49.9704Z" fill="black"/>
<path d="M65.6715 46.1051L62.3242 48.0377L64.2568 51.3851L67.6041 49.4525L65.6715 46.1051Z" fill="black"/>
<path d="M72.3661 42.2399L69.0187 44.1725L70.9513 47.5199L74.2987 45.5873L72.3661 42.2399Z" fill="black"/>
<path d="M75.7136 40.3074L72.3662 42.24L74.2989 45.5874L77.6462 43.6547L75.7136 40.3074Z" fill="black"/>
<path d="M79.0612 38.3747L75.7138 40.3073L77.6464 43.6547L80.9938 41.7221L79.0612 38.3747Z" fill="black"/>
<path d="M82.4087 36.4421L79.0613 38.3747L80.9939 41.7221L84.3413 39.7894L82.4087 36.4421Z" fill="black"/>
<path d="M85.7557 34.5095L82.4083 36.4421L84.3409 39.7895L87.6883 37.8569L85.7557 34.5095Z" fill="black"/>
<path d="M89.1032 32.5769L85.7559 34.5095L87.6885 37.8569L91.0359 35.9243L89.1032 32.5769Z" fill="black"/>
<path d="M92.4508 30.6442L89.1034 32.5768L91.036 35.9242L94.3834 33.9916L92.4508 30.6442Z" fill="black"/>
<path d="M54.2145 57.183L50.8671 59.1156L52.7997 62.463L56.1471 60.5304L54.2145 57.183Z" fill="black"/>
<path d="M60.9095 53.3178L57.5621 55.2504L59.4947 58.5978L62.8421 56.6652L60.9095 53.3178Z" fill="black"/>
<path d="M29.3682 75.9913L26.0209 77.9239L27.9535 81.2713L31.3009 79.3386L29.3682 75.9913Z" fill="black"/>
<path d="M32.7158 74.0586L29.3684 75.9912L31.301 79.3386L34.6484 77.406L32.7158 74.0586Z" fill="black"/>
<path d="M36.0628 72.126L32.7154 74.0586L34.648 77.4059L37.9954 75.4733L36.0628 72.126Z" fill="black"/>
<path d="M42.7579 68.2608L39.4105 70.1934L41.3431 73.5408L44.6905 71.6081L42.7579 68.2608Z" fill="black"/>
<path d="M46.1054 66.3282L42.758 68.2608L44.6906 71.6082L48.038 69.6756L46.1054 66.3282Z" fill="black"/>
<path d="M49.4524 64.3956L46.105 66.3282L48.0377 69.6756L51.385 67.743L49.4524 64.3956Z" fill="black"/>
<path d="M52.8 62.4629L49.4526 64.3955L51.3852 67.7429L54.7326 65.8103L52.8 62.4629Z" fill="black"/>
<path d="M56.1475 60.5304L52.8001 62.463L54.7327 65.8104L58.0801 63.8778L56.1475 60.5304Z" fill="black"/>
<path d="M62.842 56.6651L59.4947 58.5977L61.4273 61.9451L64.7746 60.0125L62.842 56.6651Z" fill="black"/>
<path d="M69.5366 52.7999L66.1892 54.7325L68.1218 58.0799L71.4692 56.1473L69.5366 52.7999Z" fill="black"/>
<path d="M72.8841 50.8672L69.5367 52.7999L71.4694 56.1472L74.8167 54.2146L72.8841 50.8672Z" fill="black"/>
<path d="M76.2317 48.9347L72.8843 50.8673L74.8169 54.2147L78.1643 52.2821L76.2317 48.9347Z" fill="black"/>
<path d="M89.6213 41.2042L86.2739 43.1368L88.2065 46.4842L91.5539 44.5516L89.6213 41.2042Z" fill="black"/>
<path d="M31.3008 79.3387L27.9534 81.2713L29.886 84.6187L33.2334 82.686L31.3008 79.3387Z" fill="black"/>
<path d="M37.9958 75.4734L34.6485 77.406L36.5811 80.7533L39.9284 78.8207L37.9958 75.4734Z" fill="black"/>
<path d="M48.0379 69.6755L44.6905 71.6081L46.6232 74.9555L49.9705 73.0229L48.0379 69.6755Z" fill="black"/>
<path d="M58.08 63.8777L54.7326 65.8103L56.6652 69.1577L60.0126 67.2251L58.08 63.8777Z" fill="black"/>
<path d="M64.7746 60.0125L61.4272 61.9451L63.3598 65.2925L66.7072 63.3599L64.7746 60.0125Z" fill="black"/>
<path d="M68.1221 58.08L64.7747 60.0126L66.7073 63.3599L70.0547 61.4273L68.1221 58.08Z" fill="black"/>
<path d="M74.8167 54.2146L71.4693 56.1473L73.4019 59.4946L76.7493 57.562L74.8167 54.2146Z" fill="black"/>
<path d="M81.5117 50.3495L78.1643 52.2821L80.0969 55.6294L83.4443 53.6968L81.5117 50.3495Z" fill="black"/>
<path d="M88.2063 46.4843L84.8589 48.4169L86.7915 51.7643L90.1389 49.8316L88.2063 46.4843Z" fill="black"/>
<path d="M94.9008 42.619L91.5535 44.5516L93.4861 47.899L96.8334 45.9663L94.9008 42.619Z" fill="black"/>
<path d="M39.9284 78.8208L36.581 80.7534L38.5136 84.1008L41.861 82.1681L39.9284 78.8208Z" fill="black"/>
<path d="M46.6229 74.9556L43.2755 76.8882L45.2082 80.2356L48.5555 78.303L46.6229 74.9556Z" fill="black"/>
<path d="M53.318 71.0904L49.9706 73.023L51.9032 76.3704L55.2506 74.4378L53.318 71.0904Z" fill="black"/>
<path d="M63.3601 65.2925L60.0127 67.2252L61.9453 70.5725L65.2927 68.6399L63.3601 65.2925Z" fill="black"/>
<path d="M70.0546 61.4272L66.7073 63.3598L68.6399 66.7072L71.9872 64.7746L70.0546 61.4272Z" fill="black"/>
<path d="M76.7492 57.562L73.4018 59.4947L75.3344 62.842L78.6818 60.9094L76.7492 57.562Z" fill="black"/>
<path d="M80.0967 55.6294L76.7493 57.562L78.682 60.9094L82.0293 58.9768L80.0967 55.6294Z" fill="black"/>
<path d="M83.4443 53.6969L80.0969 55.6295L82.0295 58.9769L85.3769 57.0442L83.4443 53.6969Z" fill="black"/>
<path d="M90.1388 49.8316L86.7914 51.7642L88.724 55.1115L92.0714 53.1789L90.1388 49.8316Z" fill="black"/>
<path d="M93.4863 47.899L90.139 49.8316L92.0716 53.179L95.4189 51.2464L93.4863 47.899Z" fill="black"/>
<path d="M96.8339 45.9664L93.4865 47.899L95.4191 51.2464L98.7665 49.3137L96.8339 45.9664Z" fill="black"/>
<path d="M38.5134 84.1008L35.166 86.0334L37.0986 89.3808L40.446 87.4482L38.5134 84.1008Z" fill="black"/>
<path d="M48.5555 78.303L45.2081 80.2356L47.1407 83.583L50.4881 81.6504L48.5555 78.303Z" fill="black"/>
<path d="M51.903 76.3703L48.5556 78.3029L50.4882 81.6503L53.8356 79.7177L51.903 76.3703Z" fill="black"/>
<path d="M58.5975 72.5051L55.2502 74.4377L57.1828 77.7851L60.5302 75.8525L58.5975 72.5051Z" fill="black"/>
<path d="M65.2926 68.6398L61.9452 70.5724L63.8778 73.9198L67.2252 71.9872L65.2926 68.6398Z" fill="black"/>
<path d="M68.6396 66.7073L65.2923 68.6399L67.2249 71.9873L70.5722 70.0547L68.6396 66.7073Z" fill="black"/>
<path d="M71.9872 64.7746L68.6398 66.7073L70.5724 70.0546L73.9198 68.122L71.9872 64.7746Z" fill="black"/>
<path d="M75.3347 62.842L71.9873 64.7746L73.9199 68.122L77.2673 66.1894L75.3347 62.842Z" fill="black"/>
<path d="M78.6822 60.9095L75.3348 62.8421L77.2675 66.1894L80.6148 64.2568L78.6822 60.9095Z" fill="black"/>
<path d="M85.3768 57.0443L82.0294 58.9769L83.962 62.3243L87.3094 60.3916L85.3768 57.0443Z" fill="black"/>
<path d="M88.7243 55.1116L85.3769 57.0442L87.3095 60.3916L90.6569 58.459L88.7243 55.1116Z" fill="black"/>
<path d="M92.0713 53.179L88.724 55.1116L90.6566 58.459L94.004 56.5263L92.0713 53.179Z" fill="black"/>
<path d="M98.7664 49.3138L95.419 51.2464L97.3516 54.5938L100.699 52.6612L98.7664 49.3138Z" fill="black"/>
<path d="M102.113 47.3811L98.7661 49.3137L100.699 52.6611L104.046 50.7285L102.113 47.3811Z" fill="black"/>
<path d="M37.0989 89.3808L33.7515 91.3134L35.6841 94.6607L39.0315 92.7281L37.0989 89.3808Z" fill="black"/>
<path d="M40.4459 87.4481L37.0985 89.3807L39.0311 92.7281L42.3785 90.7955L40.4459 87.4481Z" fill="black"/>
<path d="M47.141 83.5829L43.7936 85.5155L45.7262 88.8629L49.0736 86.9303L47.141 83.5829Z" fill="black"/>
<path d="M50.488 81.6503L47.1406 83.5829L49.0732 86.9302L52.4206 84.9976L50.488 81.6503Z" fill="black"/>
<path d="M53.8355 79.7177L50.4881 81.6503L52.4207 84.9977L55.7681 83.0651L53.8355 79.7177Z" fill="black"/>
<path d="M57.183 77.7851L53.8357 79.7177L55.7683 83.0651L59.1157 81.1324L57.183 77.7851Z" fill="black"/>
<path d="M60.5306 75.8524L57.1832 77.785L59.1158 81.1324L62.4632 79.1998L60.5306 75.8524Z" fill="black"/>
<path d="M67.2251 71.9872L63.8778 73.9198L65.8104 77.2672L69.1577 75.3346L67.2251 71.9872Z" fill="black"/>
<path d="M70.5727 70.0547L67.2253 71.9873L69.1579 75.3347L72.5053 73.4021L70.5727 70.0547Z" fill="black"/>
<path d="M73.9197 68.122L70.5723 70.0547L72.5049 73.402L75.8523 71.4694L73.9197 68.122Z" fill="black"/>
<path d="M80.6148 64.2569L77.2674 66.1895L79.2 69.5368L82.5474 67.6042L80.6148 64.2569Z" fill="black"/>
<path d="M83.9618 62.3242L80.6144 64.2568L82.547 67.6042L85.8944 65.6716L83.9618 62.3242Z" fill="black"/>
<path d="M87.3093 60.3915L83.9619 62.3242L85.8945 65.6715L89.2419 63.7389L87.3093 60.3915Z" fill="black"/>
<path d="M94.0044 56.5264L90.657 58.459L92.5896 61.8063L95.937 59.8737L94.0044 56.5264Z" fill="black"/>
<path d="M97.3514 54.5937L94.004 56.5263L95.9366 59.8737L99.284 57.9411L97.3514 54.5937Z" fill="black"/>
<path d="M100.699 52.6612L97.3515 54.5938L99.2842 57.9412L102.632 56.0085L100.699 52.6612Z" fill="black"/>
<path d="M65.8101 77.2673L62.4628 79.1999L64.3954 82.5473L67.7427 80.6147L65.8101 77.2673Z" fill="black"/>
<path d="M69.1577 75.3346L65.8103 77.2672L67.7429 80.6146L71.0903 78.682L69.1577 75.3346Z" fill="black"/>
<path d="M72.5052 73.402L69.1578 75.3346L71.0904 78.682L74.4378 76.7494L72.5052 73.402Z" fill="black"/>
<path d="M85.8948 65.6716L82.5474 67.6042L84.48 70.9516L87.8274 69.019L85.8948 65.6716Z" fill="black"/>
<path d="M99.2839 57.9411L95.9366 59.8737L97.8692 63.2211L101.217 61.2885L99.2839 57.9411Z" fill="black"/>
<path d="M102.631 56.0086L99.2841 57.9412L101.217 61.2886L104.564 59.356L102.631 56.0086Z" fill="black"/>
<path d="M40.9639 96.0756L37.6165 98.0082L39.5492 101.356L42.8965 99.4229L40.9639 96.0756Z" fill="black"/>
<path d="M44.3115 94.1429L40.9641 96.0755L42.8967 99.4229L46.2441 97.4903L44.3115 94.1429Z" fill="black"/>
<path d="M47.6585 92.2103L44.3111 94.1429L46.2437 97.4902L49.5911 95.5576L47.6585 92.2103Z" fill="black"/>
<path d="M51.006 90.2777L47.6586 92.2103L49.5912 95.5577L52.9386 93.6251L51.006 90.2777Z" fill="black"/>
<path d="M54.3535 88.3451L51.0062 90.2777L52.9388 93.6251L56.2862 91.6924L54.3535 88.3451Z" fill="black"/>
<path d="M57.7006 86.4124L54.3532 88.345L56.2858 91.6924L59.6332 89.7598L57.7006 86.4124Z" fill="black"/>
<path d="M61.0481 84.4799L57.7007 86.4125L59.6333 89.7599L62.9807 87.8273L61.0481 84.4799Z" fill="black"/>
<path d="M67.7432 80.6146L64.3958 82.5472L66.3284 85.8946L69.6758 83.962L67.7432 80.6146Z" fill="black"/>
<path d="M81.1323 72.8842L77.7849 74.8168L79.7175 78.1642L83.0649 76.2316L81.1323 72.8842Z" fill="black"/>
<path d="M94.5219 65.1537L91.1745 67.0863L93.1071 70.4337L96.4545 68.5011L94.5219 65.1537Z" fill="black"/>
<path d="M107.912 57.4233L104.564 59.3559L106.497 62.7033L109.844 60.7707L107.912 57.4233Z" fill="black"/>
<path d="M42.8965 99.4228L39.5491 101.355L41.4817 104.703L44.8291 102.77L42.8965 99.4228Z" fill="black"/>
<path d="M62.9806 87.8273L59.6333 89.7599L61.5659 93.1073L64.9133 91.1747L62.9806 87.8273Z" fill="black"/>
<path d="M69.6757 83.962L66.3283 85.8946L68.2609 89.242L71.6083 87.3094L69.6757 83.962Z" fill="black"/>
<path d="M73.0227 82.0294L69.6753 83.9621L71.608 87.3094L74.9553 85.3768L73.0227 82.0294Z" fill="black"/>
<path d="M76.3703 80.0968L73.0229 82.0294L74.9555 85.3768L78.3029 83.4442L76.3703 80.0968Z" fill="black"/>
<path d="M89.7599 72.3663L86.4125 74.2989L88.3451 77.6463L91.6925 75.7137L89.7599 72.3663Z" fill="black"/>
<path d="M103.149 64.6359L99.8021 66.5685L101.735 69.9159L105.082 67.9833L103.149 64.6359Z" fill="black"/>
<path d="M106.497 62.7033L103.149 64.6359L105.082 67.9833L108.429 66.0506L106.497 62.7033Z" fill="black"/>
<path d="M44.829 102.77L41.4816 104.703L43.4142 108.05L46.7616 106.118L44.829 102.77Z" fill="black"/>
<path d="M51.524 98.9051L48.1767 100.838L50.1093 104.185L53.4567 102.252L51.524 98.9051Z" fill="black"/>
<path d="M54.8711 96.9724L51.5237 98.905L53.4563 102.252L56.8037 100.32L54.8711 96.9724Z" fill="black"/>
<path d="M58.2186 95.0399L54.8712 96.9725L56.8038 100.32L60.1512 98.3873L58.2186 95.0399Z" fill="black"/>
<path d="M64.9132 91.1746L61.5658 93.1072L63.4984 96.4546L66.8458 94.5219L64.9132 91.1746Z" fill="black"/>
<path d="M71.6082 87.3094L68.2608 89.242L70.1935 92.5894L73.5408 90.6568L71.6082 87.3094Z" fill="black"/>
<path d="M84.9978 79.579L81.6505 81.5116L83.5831 84.859L86.9304 82.9264L84.9978 79.579Z" fill="black"/>
<path d="M91.6924 75.7137L88.345 77.6463L90.2776 80.9937L93.625 79.0611L91.6924 75.7137Z" fill="black"/>
<path d="M98.3875 71.8485L95.0401 73.7811L96.9727 77.1285L100.32 75.1959L98.3875 71.8485Z" fill="black"/>
<path d="M105.082 67.9833L101.735 69.9159L103.667 73.2633L107.015 71.3307L105.082 67.9833Z" fill="black"/>
<path d="M111.777 64.118L108.429 66.0506L110.362 69.398L113.709 67.4654L111.777 64.118Z" fill="black"/>
<path d="M46.7615 106.118L43.4141 108.05L45.3468 111.398L48.6941 109.465L46.7615 106.118Z" fill="black"/>
<path d="M53.4566 102.252L50.1092 104.185L52.0418 107.532L55.3892 105.6L53.4566 102.252Z" fill="black"/>
<path d="M56.8041 100.32L53.4567 102.252L55.3893 105.6L58.7367 103.667L56.8041 100.32Z" fill="black"/>
<path d="M60.1511 98.3872L56.8038 100.32L58.7364 103.667L62.0838 101.735L60.1511 98.3872Z" fill="black"/>
<path d="M66.8462 94.522L63.4988 96.4546L65.4314 99.802L68.7788 97.8694L66.8462 94.522Z" fill="black"/>
<path d="M76.8883 88.7241L73.5409 90.6567L75.4735 94.0041L78.8209 92.0715L76.8883 88.7241Z" fill="black"/>
<path d="M83.5829 84.8589L80.2355 86.7916L82.1681 90.1389L85.5155 88.2063L83.5829 84.8589Z" fill="black"/>
<path d="M90.2779 80.9938L86.9305 82.9264L88.8631 86.2737L92.2105 84.3411L90.2779 80.9938Z" fill="black"/>
<path d="M96.9725 77.1284L93.6251 79.0611L95.5577 82.4084L98.9051 80.4758L96.9725 77.1284Z" fill="black"/>
<path d="M103.667 73.2633L100.32 75.1959L102.252 78.5433L105.6 76.6106L103.667 73.2633Z" fill="black"/>
<path d="M110.362 69.3981L107.015 71.3307L108.947 74.6781L112.295 72.7455L110.362 69.3981Z" fill="black"/>
<path d="M48.6945 109.465L45.3472 111.398L47.2798 114.745L50.6272 112.812L48.6945 109.465Z" fill="black"/>
<path d="M55.3891 105.6L52.0417 107.532L53.9743 110.88L57.3217 108.947L55.3891 105.6Z" fill="black"/>
<path d="M58.7366 103.667L55.3893 105.6L57.3219 108.947L60.6692 107.015L58.7366 103.667Z" fill="black"/>
<path d="M62.0837 101.735L58.7363 103.667L60.6689 107.015L64.0163 105.082L62.0837 101.735Z" fill="black"/>
<path d="M68.7787 97.8694L65.4313 99.802L67.364 103.149L70.7113 101.217L68.7787 97.8694Z" fill="black"/>
<path d="M75.4733 94.0042L72.1259 95.9368L74.0585 99.2842L77.4059 97.3516L75.4733 94.0042Z" fill="black"/>
<path d="M82.1683 90.1389L78.821 92.0715L80.7536 95.4189L84.101 93.4863L82.1683 90.1389Z" fill="black"/>
<path d="M85.5154 88.2063L82.168 90.139L84.1006 93.4863L87.448 91.5537L85.5154 88.2063Z" fill="black"/>
<path d="M92.2104 84.3412L88.8631 86.2738L90.7957 89.6211L94.143 87.6885L92.2104 84.3412Z" fill="black"/>
<path d="M95.5575 82.4085L92.2101 84.3411L94.1427 87.6885L97.4901 85.7559L95.5575 82.4085Z" fill="black"/>
<path d="M98.905 80.4758L95.5576 82.4085L97.4902 85.7558L100.838 83.8232L98.905 80.4758Z" fill="black"/>
<path d="M105.6 76.6107L102.253 78.5433L104.185 81.8906L107.533 79.958L105.6 76.6107Z" fill="black"/>
<path d="M108.947 74.678L105.6 76.6106L107.532 79.958L110.88 78.0254L108.947 74.678Z" fill="black"/>
<path d="M115.642 70.8128L112.295 72.7454L114.227 76.0928L117.575 74.1602L115.642 70.8128Z" fill="black"/>
<path d="M50.6271 112.812L47.2797 114.745L49.2123 118.092L52.5597 116.16L50.6271 112.812Z" fill="black"/>
<path d="M70.7113 101.217L67.3639 103.149L69.2965 106.497L72.6439 104.564L70.7113 101.217Z" fill="black"/>
<path d="M77.4058 97.3515L74.0584 99.2841L75.9911 102.631L79.3384 100.699L77.4058 97.3515Z" fill="black"/>
<path d="M80.7533 95.4189L77.406 97.3515L79.3386 100.699L82.686 98.7663L80.7533 95.4189Z" fill="black"/>
<path d="M87.4479 91.5537L84.1005 93.4864L86.0331 96.8337L89.3805 94.9011L87.4479 91.5537Z" fill="black"/>
<path d="M90.7954 89.6211L87.4481 91.5537L89.3807 94.9011L92.728 92.9685L90.7954 89.6211Z" fill="black"/>
<path d="M94.143 87.6884L90.7956 89.6211L92.7282 92.9684L96.0756 91.0358L94.143 87.6884Z" fill="black"/>
<path d="M100.838 83.8233L97.4901 85.7559L99.4228 89.1032L102.77 87.1706L100.838 83.8233Z" fill="black"/>
<path d="M104.185 81.8906L100.838 83.8232L102.77 87.1706L106.118 85.238L104.185 81.8906Z" fill="black"/>
<path d="M107.533 79.9581L104.185 81.8907L106.118 85.2381L109.465 83.3054L107.533 79.9581Z" fill="black"/>
<path d="M114.227 76.0928L110.88 78.0254L112.812 81.3727L116.16 79.4401L114.227 76.0928Z" fill="black"/>
<path d="M52.5596 116.16L49.2122 118.092L51.1448 121.44L54.4922 119.507L52.5596 116.16Z" fill="black"/>
<path d="M55.9071 114.227L52.5598 116.16L54.4924 119.507L57.8398 117.575L55.9071 114.227Z" fill="black"/>
<path d="M59.2542 112.295L55.9068 114.227L57.8394 117.575L61.1868 115.642L59.2542 112.295Z" fill="black"/>
<path d="M62.6017 110.362L59.2543 112.295L61.1869 115.642L64.5343 113.709L62.6017 110.362Z" fill="black"/>
<path d="M65.9492 108.429L62.6018 110.362L64.5345 113.709L67.8818 111.777L65.9492 108.429Z" fill="black"/>
<path d="M69.2963 106.497L65.9489 108.429L67.8815 111.777L71.2289 109.844L69.2963 106.497Z" fill="black"/>
<path d="M72.6438 104.564L69.2964 106.497L71.229 109.844L74.5764 107.912L72.6438 104.564Z" fill="black"/>
<path d="M79.3388 100.699L75.9915 102.631L77.9241 105.979L81.2715 104.046L79.3388 100.699Z" fill="black"/>
<path d="M82.6859 98.7663L79.3385 100.699L81.2711 104.046L84.6185 102.114L82.6859 98.7663Z" fill="black"/>
<path d="M89.3809 94.901L86.0336 96.8336L87.9662 100.181L91.3136 98.2484L89.3809 94.901Z" fill="black"/>
<path d="M96.0755 91.0358L92.7281 92.9685L94.6607 96.3158L98.0081 94.3832L96.0755 91.0358Z" fill="black"/>
<path d="M99.423 89.1032L96.0756 91.0358L98.0083 94.3832L101.356 92.4506L99.423 89.1032Z" fill="black"/>
<path d="M102.77 87.1707L99.4227 89.1033L101.355 92.4507L104.703 90.518L102.77 87.1707Z" fill="black"/>
<path d="M109.465 83.3053L106.118 85.238L108.05 88.5853L111.398 86.6527L109.465 83.3053Z" fill="black"/>
<path d="M112.813 81.3728L109.465 83.3054L111.398 86.6528L114.745 84.7202L112.813 81.3728Z" fill="black"/>
<path d="M116.16 79.4402L112.812 81.3728L114.745 84.7202L118.092 82.7875L116.16 79.4402Z" fill="black"/>
<path d="M119.507 77.5076L116.16 79.4402L118.092 82.7876L121.44 80.855L119.507 77.5076Z" fill="black"/>
</g>
<defs>
<clipPath id="clip0_86_742">
<rect width="96" height="96" fill="white" transform="translate(0 48.3153) scale(1.00657) rotate(-30)"/>
</clipPath>
</defs>
</svg>
