<svg width="33" height="33" viewBox="0 0 33 33" fill="none" xmlns="http://www.w3.org/2000/svg">
<g clip-path="url(#clip0_86_336)">
<path d="M14.287 19.5325L22.2438 19.5645M16.7091 9.99807L12.767 16.8999M20.822 5.86842C21.6558 7.31273 21.161 9.15955 19.7167 9.99342C18.2724 10.8273 16.4256 10.3324 15.5917 8.88813C14.7578 7.44383 15.2527 5.597 16.697 4.76314C18.1413 3.92927 19.9881 4.42412 20.822 5.86842ZM13.8844 18.0098C14.7183 19.4541 14.2234 21.301 12.7791 22.1348C11.3348 22.9687 9.48799 22.4738 8.65413 21.0295C7.82026 19.5852 8.31511 17.7384 9.75941 16.9045C11.2037 16.0707 13.0505 16.5655 13.8844 18.0098ZM27.868 18.0724C28.7018 19.5167 28.207 21.3635 26.7627 22.1974C25.3184 23.0313 23.4715 22.5364 22.6377 21.0921C21.8038 19.6478 22.2987 17.801 23.743 16.9671C25.1873 16.1333 27.0341 16.6281 27.868 18.0724Z" stroke="white" stroke-width="1.5" stroke-linecap="round" stroke-linejoin="round"/>
</g>
<defs>
<clipPath id="clip0_86_336">
<path d="M6.03941 22.5394C2.70394 16.7622 4.68335 9.37488 10.4606 6.03941V6.03941C16.2378 2.70394 23.6251 4.68335 26.9605 10.4606V10.4606C30.296 16.2378 28.3166 23.6251 22.5394 26.9605V26.9605C16.7622 30.296 9.37488 28.3166 6.03941 22.5394V22.5394Z" fill="white"/>
</clipPath>
</defs>
</svg>
