<svg width="363" height="315" viewBox="0 0 363 315" fill="none" xmlns="http://www.w3.org/2000/svg">
<mask id="mask0_86_402" style="mask-type:alpha" maskUnits="userSpaceOnUse" x="0" y="0" width="363" height="315">
<path fill-rule="evenodd" clip-rule="evenodd" d="M2.14687 173.034C-2.2722 165.38 0.350271 155.592 8.00432 151.173L266.126 2.14662C273.78 -2.27244 283.567 0.350027 287.986 8.00408L363 137.931C346.838 147.262 340.932 167.535 349.235 183.99L123.931 314.07C113.832 298.651 93.3221 293.63 77.1603 302.961L2.14687 173.034Z" fill="#6564DB"/>
</mask>
<g mask="url(#mask0_86_402)">
<path d="M2.14687 173.034C-2.2722 165.38 0.350271 155.592 8.00432 151.173L266.126 2.14662C273.78 -2.27244 283.567 0.350028 287.986 8.00408L371.501 152.656C375.92 160.31 373.298 170.097 365.644 174.517L107.522 323.543C99.8681 327.962 90.0809 325.34 85.6618 317.686L2.14687 173.034Z" fill="#0E0D0D" fill-opacity="0.34"/>
</g>
</svg>
