<svg width="33" height="33" viewBox="0 0 33 33" fill="none" xmlns="http://www.w3.org/2000/svg">
<g clip-path="url(#clip0_86_155)">
<path d="M14.2875 19.5325L22.2443 19.5645M16.7096 9.99807L12.7675 16.8999M20.8225 5.86842C21.6563 7.31273 21.1615 9.15955 19.7172 9.99342C18.2729 10.8273 16.4261 10.3324 15.5922 8.88813C14.7583 7.44383 15.2532 5.597 16.6975 4.76314C18.1418 3.92927 19.9886 4.42412 20.8225 5.86842ZM13.8849 18.0098C14.7188 19.4541 14.2239 21.301 12.7796 22.1348C11.3353 22.9687 9.48849 22.4738 8.65462 21.0295C7.82075 19.5852 8.3156 17.7384 9.75991 16.9045C11.2042 16.0707 13.051 16.5655 13.8849 18.0098ZM27.8684 18.0724C28.7023 19.5167 28.2075 21.3635 26.7632 22.1974C25.3189 23.0313 23.472 22.5364 22.6382 21.0921C21.8043 19.6478 22.2992 17.801 23.7435 16.9671C25.1878 16.1333 27.0346 16.6281 27.8684 18.0724Z" stroke="white" stroke-width="1.5" stroke-linecap="round" stroke-linejoin="round"/>
</g>
<defs>
<clipPath id="clip0_86_155">
<path d="M6.03941 22.5394C2.70394 16.7622 4.68335 9.37488 10.4606 6.03941V6.03941C16.2378 2.70394 23.6251 4.68335 26.9605 10.4606V10.4606C30.296 16.2378 28.3166 23.6251 22.5394 26.9605V26.9605C16.7622 30.296 9.37488 28.3166 6.03941 22.5394V22.5394Z" fill="white"/>
</clipPath>
</defs>
</svg>
