<svg width="17" height="17" viewBox="0 0 17 17" fill="none" xmlns="http://www.w3.org/2000/svg">
<path fill-rule="evenodd" clip-rule="evenodd" d="M11.3995 0.142258L10.5302 0.644143C10.0501 0.921326 9.8716 1.5109 10.1315 1.96099L14.2093 9.02397C14.4691 9.47406 15.069 9.61423 15.5491 9.33704L16.4184 8.83516C16.8985 8.55797 17.077 7.9684 16.8171 7.51831L12.7393 0.455332C12.4795 0.00524277 11.8796 -0.134925 11.3995 0.142258ZM7.18766 4.89209L8.05695 4.3902C8.53704 4.11302 9.14195 4.26194 9.40804 4.72283L12.4595 10.0081C12.7256 10.469 12.5521 11.0673 12.072 11.3445L11.2027 11.8464C10.7226 12.1236 10.1177 11.9747 9.85163 11.5138L6.80017 6.22849C6.53408 5.7676 6.70756 5.16927 7.18766 4.89209ZM4.71416 8.63827L3.84487 9.14015C3.36477 9.41733 3.20028 10.0312 3.47746 10.5113L5.485 13.9885C5.76219 14.4686 6.37608 14.6331 6.85618 14.3559L7.72547 13.854C8.20556 13.5768 8.37006 12.9629 8.09287 12.4828L6.08533 9.00567C5.80815 8.52558 5.19425 8.36108 4.71416 8.63827ZM1.37148 12.8863L0.502189 13.3882C0.0220931 13.6653 -0.1424 14.2792 0.134784 14.7593L1.13855 16.4979C1.41574 16.978 2.02963 17.1425 2.50973 16.8653L3.37902 16.3634C3.85911 16.0862 4.02361 15.4724 3.74642 14.9923L2.74265 13.2537C2.46547 12.7736 1.85157 12.6091 1.37148 12.8863Z" fill="#090A0A"/>
</svg>
