<svg width="388" height="345" viewBox="0 0 388 345" fill="none" xmlns="http://www.w3.org/2000/svg">
<g filter="url(#filter0_d_86_704)">
<mask id="path-1-inside-1_86_704" fill="white">
<path fill-rule="evenodd" clip-rule="evenodd" d="M248.535 10.0146L22.6481 140.431C23.4349 141.494 24.1698 142.614 24.8471 143.787C34.5262 160.551 28.7822 181.988 12.0175 191.667L87.6277 322.628C92.0524 330.292 101.852 332.918 109.516 328.493L367.968 179.276C375.632 174.851 378.258 165.051 373.833 157.387L298.223 26.4265C281.458 36.1056 260.021 30.3616 250.342 13.597C249.665 12.4238 249.063 11.2278 248.535 10.0146Z"/>
</mask>
<path fill-rule="evenodd" clip-rule="evenodd" d="M248.535 10.0146L22.6481 140.431C23.4349 141.494 24.1698 142.614 24.8471 143.787C34.5262 160.551 28.7822 181.988 12.0175 191.667L87.6277 322.628C92.0524 330.292 101.852 332.918 109.516 328.493L367.968 179.276C375.632 174.851 378.258 165.051 373.833 157.387L298.223 26.4265C281.458 36.1056 260.021 30.3616 250.342 13.597C249.665 12.4238 249.063 11.2278 248.535 10.0146Z" fill="white"/>
<path d="M22.6481 140.431L22.3977 139.997L21.912 140.278L22.2455 140.729L22.6481 140.431ZM248.535 10.0146L248.995 9.81486L248.771 9.30048L248.285 9.58095L248.535 10.0146ZM12.0175 191.667L11.7671 191.234L11.3335 191.484L11.5839 191.918L12.0175 191.667ZM298.223 26.4265L298.657 26.1762L298.406 25.7425L297.973 25.9929L298.223 26.4265ZM22.8225 141.532C22.9805 141.759 23.2926 141.815 23.5195 141.657C23.7465 141.499 23.8023 141.187 23.6442 140.96L22.8225 141.532ZM24.7596 142.662C24.6147 142.427 24.3062 142.353 24.0707 142.498C23.8352 142.643 23.7618 142.952 23.9067 143.187L24.7596 142.662ZM25.6795 146.44C25.7988 146.689 26.0978 146.795 26.3473 146.676C26.5968 146.556 26.7023 146.257 26.583 146.008L25.6795 146.44ZM28.5878 151.214C28.5091 150.949 28.2303 150.798 27.9652 150.877C27.7001 150.955 27.5491 151.234 27.6278 151.499L28.5878 151.214ZM28.7558 156.801C28.7918 157.075 29.0433 157.269 29.3175 157.233C29.5917 157.197 29.7848 156.945 29.7488 156.671L28.7558 156.801ZM30.0366 162.243C30.0441 161.966 29.826 161.736 29.5496 161.729C29.2732 161.721 29.043 161.939 29.0355 162.216L30.0366 162.243ZM28.4645 167.608C28.414 167.88 28.5934 168.141 28.8653 168.192C29.1372 168.242 29.3986 168.063 29.4491 167.791L28.4645 167.608ZM28.0052 173.18C28.0974 172.919 27.9608 172.633 27.7001 172.541C27.4393 172.449 27.1532 172.585 27.061 172.846L28.0052 173.18ZM24.8593 177.801C24.7276 178.045 24.8179 178.349 25.0611 178.48C25.3042 178.612 25.6081 178.522 25.7398 178.279L24.8593 177.801ZM22.7046 182.96C22.8729 182.741 22.8314 182.426 22.6119 182.258C22.3924 182.09 22.0781 182.131 21.9099 182.351L22.7046 182.96ZM18.2819 186.379C18.0812 186.569 18.0726 186.886 18.2628 187.086C18.453 187.287 18.77 187.296 18.9707 187.105L18.2819 186.379ZM14.6315 190.612C14.8595 190.455 14.9176 190.144 14.7612 189.916C14.6048 189.687 14.2931 189.629 14.0651 189.786L14.6315 190.612ZM13.0379 194.436C13.1762 194.676 13.4824 194.758 13.7219 194.619C13.9614 194.481 14.0435 194.175 13.9052 193.935L13.0379 194.436ZM16.8133 198.972C16.675 198.733 16.3688 198.651 16.1293 198.789C15.8898 198.927 15.8077 199.234 15.946 199.473L16.8133 198.972ZM18.8541 204.51C18.9924 204.75 19.2986 204.832 19.5381 204.693C19.7776 204.555 19.8596 204.249 19.7214 204.009L18.8541 204.51ZM22.6295 209.046C22.4912 208.807 22.1849 208.725 21.9454 208.863C21.7059 209.001 21.6239 209.308 21.7622 209.547L22.6295 209.046ZM24.6702 214.584C24.8085 214.823 25.1148 214.906 25.3543 214.767C25.5938 214.629 25.6758 214.323 25.5375 214.083L24.6702 214.584ZM28.4456 219.12C28.3073 218.881 28.0011 218.799 27.7616 218.937C27.5221 219.075 27.4401 219.381 27.5783 219.621L28.4456 219.12ZM30.4864 224.658C30.6247 224.897 30.9309 224.979 31.1704 224.841C31.4099 224.703 31.492 224.397 31.3537 224.157L30.4864 224.658ZM34.2618 229.194C34.1235 228.955 33.8173 228.873 33.5778 229.011C33.3383 229.149 33.2562 229.455 33.3945 229.695L34.2618 229.194ZM36.3026 234.732C36.4409 234.971 36.7471 235.053 36.9866 234.915C37.2261 234.777 37.3081 234.471 37.1699 234.231L36.3026 234.732ZM40.078 239.268C39.9397 239.029 39.6334 238.946 39.394 239.085C39.1545 239.223 39.0724 239.529 39.2107 239.769L40.078 239.268ZM42.1188 244.806C42.257 245.045 42.5633 245.127 42.8028 244.989C43.0423 244.851 43.1243 244.544 42.986 244.305L42.1188 244.806ZM45.8941 249.342C45.7559 249.102 45.4496 249.02 45.2101 249.159C44.9706 249.297 44.8886 249.603 45.0268 249.843L45.8941 249.342ZM47.9349 254.88C48.0732 255.119 48.3794 255.201 48.6189 255.063C48.8584 254.925 48.9405 254.618 48.8022 254.379L47.9349 254.88ZM51.7103 259.416C51.572 259.176 51.2658 259.094 51.0263 259.233C50.7868 259.371 50.7047 259.677 50.843 259.917L51.7103 259.416ZM53.7511 264.953C53.8894 265.193 54.1956 265.275 54.4351 265.137C54.6746 264.998 54.7567 264.692 54.6184 264.453L53.7511 264.953ZM57.5265 269.49C57.3882 269.25 57.082 269.168 56.8425 269.306C56.603 269.445 56.5209 269.751 56.6592 269.99L57.5265 269.49ZM59.5673 275.027C59.7055 275.267 60.0118 275.349 60.2513 275.211C60.4908 275.072 60.5728 274.766 60.4346 274.527L59.5673 275.027ZM63.3426 279.564C63.2044 279.324 62.8981 279.242 62.6586 279.38C62.4191 279.519 62.3371 279.825 62.4753 280.064L63.3426 279.564ZM65.3834 285.101C65.5217 285.341 65.8279 285.423 66.0674 285.285C66.3069 285.146 66.389 284.84 66.2507 284.601L65.3834 285.101ZM69.1588 289.638C69.0205 289.398 68.7143 289.316 68.4748 289.454C68.2353 289.592 68.1532 289.899 68.2915 290.138L69.1588 289.638ZM71.1996 295.175C71.3379 295.415 71.6441 295.497 71.8836 295.358C72.1231 295.22 72.2052 294.914 72.0669 294.674L71.1996 295.175ZM74.975 299.711C74.8367 299.472 74.5305 299.39 74.291 299.528C74.0515 299.666 73.9694 299.973 74.1077 300.212L74.975 299.711ZM77.0158 305.249C77.154 305.489 77.4603 305.571 77.6998 305.432C77.9393 305.294 78.0213 304.988 77.8831 304.748L77.0158 305.249ZM80.7911 309.785C80.6529 309.546 80.3466 309.464 80.1071 309.602C79.8676 309.74 79.7856 310.047 79.9239 310.286L80.7911 309.785ZM82.8319 315.323C82.9702 315.562 83.2765 315.645 83.5159 315.506C83.7554 315.368 83.8375 315.062 83.6992 314.822L82.8319 315.323ZM86.6073 319.859C86.469 319.62 86.1628 319.538 85.9233 319.676C85.6838 319.814 85.6018 320.12 85.74 320.36L86.6073 319.859ZM89.0786 325.513C89.2607 325.722 89.5771 325.743 89.7852 325.561C89.9933 325.378 90.0143 325.062 89.8322 324.854L89.0786 325.513ZM94.6375 328.539C94.3893 328.417 94.0892 328.519 93.9671 328.768C93.845 329.016 93.9472 329.316 94.1954 329.438L94.6375 328.539ZM100.423 331.107C100.699 331.125 100.938 330.916 100.956 330.64C100.974 330.364 100.766 330.126 100.49 330.107L100.423 331.107ZM106.494 329.318C106.232 329.408 106.092 329.692 106.181 329.954C106.27 330.216 106.555 330.356 106.817 330.266L106.494 329.318ZM112.351 327.434C112.59 327.296 112.672 326.99 112.534 326.75C112.396 326.511 112.09 326.429 111.85 326.567L112.351 327.434ZM117.019 323.583C116.78 323.721 116.698 324.027 116.836 324.267C116.974 324.506 117.28 324.588 117.52 324.45L117.019 323.583ZM122.689 321.466C122.928 321.327 123.011 321.021 122.872 320.782C122.734 320.542 122.428 320.46 122.188 320.598L122.689 321.466ZM127.357 317.614C127.118 317.752 127.036 318.059 127.174 318.298C127.312 318.538 127.619 318.62 127.858 318.481L127.357 317.614ZM133.027 315.497C133.267 315.359 133.349 315.053 133.21 314.813C133.072 314.574 132.766 314.491 132.526 314.63L133.027 315.497ZM137.695 311.645C137.456 311.784 137.374 312.09 137.512 312.329C137.65 312.569 137.957 312.651 138.196 312.513L137.695 311.645ZM143.365 309.528C143.605 309.39 143.687 309.084 143.548 308.844C143.41 308.605 143.104 308.523 142.864 308.661L143.365 309.528ZM148.033 305.677C147.794 305.815 147.712 306.121 147.85 306.361C147.988 306.6 148.295 306.682 148.534 306.544L148.033 305.677ZM153.703 303.56C153.943 303.421 154.025 303.115 153.887 302.876C153.748 302.636 153.442 302.554 153.203 302.692L153.703 303.56ZM158.372 299.708C158.132 299.846 158.05 300.153 158.188 300.392C158.327 300.632 158.633 300.714 158.872 300.575L158.372 299.708ZM164.041 297.591C164.281 297.453 164.363 297.146 164.225 296.907C164.086 296.667 163.78 296.585 163.541 296.724L164.041 297.591ZM168.71 293.739C168.47 293.878 168.388 294.184 168.526 294.423C168.665 294.663 168.971 294.745 169.21 294.607L168.71 293.739ZM174.379 291.622C174.619 291.484 174.701 291.178 174.563 290.938C174.424 290.699 174.118 290.617 173.879 290.755L174.379 291.622ZM179.048 287.771C178.808 287.909 178.726 288.215 178.864 288.455C179.003 288.694 179.309 288.776 179.548 288.638L179.048 287.771ZM184.717 285.654C184.957 285.515 185.039 285.209 184.901 284.97C184.763 284.73 184.456 284.648 184.217 284.786L184.717 285.654ZM189.386 281.802C189.146 281.94 189.064 282.246 189.203 282.486C189.341 282.725 189.647 282.807 189.887 282.669L189.386 281.802ZM195.056 279.685C195.295 279.547 195.377 279.24 195.239 279.001C195.101 278.761 194.794 278.679 194.555 278.818L195.056 279.685ZM199.724 275.833C199.484 275.972 199.402 276.278 199.541 276.517C199.679 276.757 199.985 276.839 200.225 276.701L199.724 275.833ZM205.394 273.716C205.633 273.578 205.715 273.272 205.577 273.032C205.439 272.793 205.132 272.711 204.893 272.849L205.394 273.716ZM210.062 269.865C209.822 270.003 209.74 270.309 209.879 270.549C210.017 270.788 210.323 270.87 210.563 270.732L210.062 269.865ZM215.732 267.747C215.971 267.609 216.053 267.303 215.915 267.063C215.777 266.824 215.471 266.742 215.231 266.88L215.732 267.747ZM220.4 263.896C220.161 264.034 220.079 264.34 220.217 264.58C220.355 264.819 220.661 264.901 220.901 264.763L220.4 263.896ZM226.07 261.779C226.309 261.641 226.391 261.334 226.253 261.095C226.115 260.855 225.809 260.773 225.569 260.911L226.07 261.779ZM230.738 257.927C230.499 258.065 230.417 258.372 230.555 258.611C230.693 258.851 230.999 258.933 231.239 258.794L230.738 257.927ZM236.408 255.81C236.647 255.672 236.73 255.366 236.591 255.126C236.453 254.887 236.147 254.805 235.907 254.943L236.408 255.81ZM241.076 251.958C240.837 252.097 240.755 252.403 240.893 252.642C241.031 252.882 241.338 252.964 241.577 252.826L241.076 251.958ZM246.746 249.841C246.986 249.703 247.068 249.397 246.929 249.157C246.791 248.918 246.485 248.836 246.245 248.974L246.746 249.841ZM251.414 245.99C251.175 246.128 251.093 246.434 251.231 246.674C251.369 246.913 251.676 246.995 251.915 246.857L251.414 245.99ZM257.084 243.873C257.324 243.734 257.406 243.428 257.267 243.189C257.129 242.949 256.823 242.867 256.583 243.005L257.084 243.873ZM261.752 240.021C261.513 240.159 261.431 240.466 261.569 240.705C261.707 240.945 262.014 241.027 262.253 240.888L261.752 240.021ZM267.422 237.904C267.662 237.766 267.744 237.459 267.606 237.22C267.467 236.98 267.161 236.898 266.922 237.037L267.422 237.904ZM272.091 234.052C271.851 234.191 271.769 234.497 271.907 234.736C272.046 234.976 272.352 235.058 272.591 234.92L272.091 234.052ZM277.76 231.935C278 231.797 278.082 231.491 277.944 231.251C277.805 231.012 277.499 230.93 277.26 231.068L277.76 231.935ZM282.429 228.084C282.189 228.222 282.107 228.528 282.245 228.768C282.384 229.007 282.69 229.089 282.929 228.951L282.429 228.084ZM288.098 225.967C288.338 225.828 288.42 225.522 288.282 225.283C288.143 225.043 287.837 224.961 287.598 225.099L288.098 225.967ZM292.767 222.115C292.527 222.253 292.445 222.559 292.583 222.799C292.722 223.038 293.028 223.12 293.268 222.982L292.767 222.115ZM298.437 219.998C298.676 219.86 298.758 219.553 298.62 219.314C298.482 219.074 298.175 218.992 297.936 219.131L298.437 219.998ZM303.105 216.146C302.865 216.284 302.783 216.591 302.922 216.83C303.06 217.07 303.366 217.152 303.606 217.013L303.105 216.146ZM308.775 214.029C309.014 213.891 309.096 213.585 308.958 213.345C308.82 213.106 308.513 213.024 308.274 213.162L308.775 214.029ZM313.443 210.177C313.203 210.316 313.121 210.622 313.26 210.861C313.398 211.101 313.704 211.183 313.944 211.045L313.443 210.177ZM319.113 208.06C319.352 207.922 319.434 207.616 319.296 207.376C319.158 207.137 318.852 207.055 318.612 207.193L319.113 208.06ZM323.781 204.209C323.542 204.347 323.46 204.653 323.598 204.893C323.736 205.132 324.042 205.214 324.282 205.076L323.781 204.209ZM329.451 202.092C329.69 201.953 329.772 201.647 329.634 201.408C329.496 201.168 329.19 201.086 328.95 201.224L329.451 202.092ZM334.119 198.24C333.88 198.378 333.798 198.685 333.936 198.924C334.074 199.164 334.38 199.246 334.62 199.107L334.119 198.24ZM339.789 196.123C340.028 195.985 340.11 195.679 339.972 195.439C339.834 195.2 339.528 195.117 339.288 195.256L339.789 196.123ZM344.457 192.271C344.218 192.41 344.136 192.716 344.274 192.955C344.412 193.195 344.718 193.277 344.958 193.139L344.457 192.271ZM350.127 190.154C350.367 190.016 350.449 189.71 350.31 189.47C350.172 189.231 349.866 189.149 349.626 189.287L350.127 190.154ZM354.795 186.303C354.556 186.441 354.474 186.747 354.612 186.987C354.75 187.226 355.057 187.308 355.296 187.17L354.795 186.303ZM360.465 184.186C360.705 184.047 360.787 183.741 360.648 183.502C360.51 183.262 360.204 183.18 359.964 183.318L360.465 184.186ZM365.133 180.334C364.894 180.472 364.812 180.779 364.95 181.018C365.088 181.258 365.395 181.34 365.634 181.201L365.133 180.334ZM370.854 177.825C371.062 177.643 371.083 177.326 370.901 177.118C370.719 176.91 370.402 176.889 370.194 177.071L370.854 177.825ZM373.88 172.266C373.757 172.514 373.86 172.814 374.108 172.936C374.356 173.058 374.656 172.956 374.778 172.708L373.88 172.266ZM376.447 166.48C376.465 166.204 376.256 165.965 375.98 165.947C375.705 165.929 375.466 166.138 375.448 166.414L376.447 166.48ZM374.659 160.409C374.748 160.671 375.032 160.811 375.294 160.722C375.556 160.633 375.696 160.348 375.607 160.086L374.659 160.409ZM372.813 154.618C372.674 154.379 372.368 154.297 372.129 154.435C371.889 154.573 371.807 154.88 371.945 155.119L372.813 154.618ZM369.037 150.082C369.176 150.322 369.482 150.404 369.721 150.265C369.961 150.127 370.043 149.821 369.905 149.581L369.037 150.082ZM366.997 144.544C366.858 144.305 366.552 144.223 366.313 144.361C366.073 144.499 365.991 144.806 366.129 145.045L366.997 144.544ZM363.221 140.008C363.359 140.248 363.666 140.33 363.905 140.192C364.145 140.053 364.227 139.747 364.089 139.508L363.221 140.008ZM361.18 134.471C361.042 134.231 360.736 134.149 360.496 134.287C360.257 134.426 360.175 134.732 360.313 134.971L361.18 134.471ZM357.405 129.934C357.543 130.174 357.85 130.256 358.089 130.118C358.329 129.979 358.411 129.673 358.272 129.434L357.405 129.934ZM355.364 124.397C355.226 124.157 354.92 124.075 354.68 124.213C354.441 124.352 354.359 124.658 354.497 124.897L355.364 124.397ZM351.589 119.86C351.727 120.1 352.033 120.182 352.273 120.044C352.512 119.905 352.594 119.599 352.456 119.36L351.589 119.86ZM349.548 114.323C349.41 114.083 349.104 114.001 348.864 114.14C348.625 114.278 348.543 114.584 348.681 114.824L349.548 114.323ZM345.773 109.787C345.911 110.026 346.217 110.108 346.457 109.97C346.696 109.832 346.778 109.525 346.64 109.286L345.773 109.787ZM343.732 104.249C343.594 104.009 343.287 103.927 343.048 104.066C342.808 104.204 342.726 104.51 342.865 104.75L343.732 104.249ZM339.957 99.7127C340.095 99.9522 340.401 100.034 340.641 99.8959C340.88 99.7577 340.962 99.4514 340.824 99.2119L339.957 99.7127ZM337.916 94.175C337.777 93.9355 337.471 93.8534 337.232 93.9917C336.992 94.13 336.91 94.4362 337.048 94.6757L337.916 94.175ZM334.14 89.6388C334.279 89.8783 334.585 89.9603 334.824 89.822C335.064 89.6838 335.146 89.3775 335.008 89.138L334.14 89.6388ZM332.1 84.1011C331.961 83.8616 331.655 83.7795 331.416 83.9178C331.176 84.0561 331.094 84.3623 331.232 84.6018L332.1 84.1011ZM328.324 79.5649C328.462 79.8044 328.769 79.8864 329.008 79.7481C329.248 79.6099 329.33 79.3036 329.191 79.0641L328.324 79.5649ZM326.283 74.0272C326.145 73.7877 325.839 73.7056 325.599 73.8439C325.36 73.9822 325.278 74.2884 325.416 74.5279L326.283 74.0272ZM322.508 69.491C322.646 69.7305 322.953 69.8125 323.192 69.6742C323.432 69.536 323.514 69.2297 323.375 68.9902L322.508 69.491ZM320.467 63.9533C320.329 63.7138 320.023 63.6317 319.783 63.77C319.544 63.9083 319.462 64.2145 319.6 64.454L320.467 63.9533ZM316.692 59.4171C316.83 59.6566 317.136 59.7386 317.376 59.6003C317.615 59.4621 317.697 59.1558 317.559 58.9163L316.692 59.4171ZM314.651 53.8794C314.513 53.6399 314.207 53.5578 313.967 53.6961C313.728 53.8344 313.646 54.1406 313.784 54.3801L314.651 53.8794ZM310.876 49.3432C311.014 49.5827 311.32 49.6647 311.56 49.5264C311.799 49.3882 311.881 49.0819 311.743 48.8424L310.876 49.3432ZM308.835 43.8055C308.697 43.566 308.39 43.4839 308.151 43.6222C307.911 43.7605 307.829 44.0667 307.968 44.3062L308.835 43.8055ZM305.06 39.2693C305.198 39.5088 305.504 39.5908 305.744 39.4525C305.983 39.3143 306.065 39.008 305.927 38.7685L305.06 39.2693ZM303.019 33.7316C302.88 33.4921 302.574 33.41 302.335 33.5483C302.095 33.6866 302.013 33.9928 302.151 34.2323L303.019 33.7316ZM299.243 29.1954C299.382 29.4349 299.688 29.5169 299.927 29.3786C300.167 29.2404 300.249 28.9341 300.111 28.6946L299.243 29.1954ZM295.57 27.259C295.32 27.3783 295.215 27.6772 295.334 27.9267C295.453 28.1762 295.752 28.2817 296.002 28.1624L295.57 27.259ZM290.796 30.1673C291.061 30.0885 291.212 29.8098 291.133 29.5447C291.054 29.2796 290.776 29.1285 290.511 29.2073L290.796 30.1673ZM285.208 30.3353C284.934 30.3712 284.741 30.6227 284.777 30.8969C284.813 31.1711 285.065 31.3642 285.339 31.3282L285.208 30.3353ZM279.767 31.616C280.043 31.6235 280.273 31.4055 280.281 31.129C280.288 30.8526 280.07 30.6224 279.794 30.6149L279.767 31.616ZM274.401 30.0439C274.13 29.9934 273.868 30.1729 273.818 30.4448C273.767 30.7167 273.947 30.978 274.219 31.0286L274.401 30.0439ZM268.83 29.5846C269.091 29.6768 269.377 29.5402 269.469 29.2795C269.561 29.0188 269.424 28.7327 269.164 28.6405L268.83 29.5846ZM264.208 26.4387C263.965 26.307 263.661 26.3973 263.529 26.6405C263.398 26.8837 263.488 27.1876 263.731 27.3193L264.208 26.4387ZM259.05 24.284C259.269 24.4523 259.583 24.4108 259.752 24.1913C259.92 23.9719 259.878 23.6576 259.659 23.4893L259.05 24.284ZM255.631 19.8613C255.441 19.6606 255.124 19.6521 254.923 19.8423C254.723 20.0325 254.714 20.3494 254.904 20.5501L255.631 19.8613ZM251.398 16.2109C251.554 16.439 251.866 16.497 252.094 16.3406C252.322 16.1842 252.38 15.8726 252.224 15.6445L251.398 16.2109ZM250.293 12.4828C250.162 12.2395 249.858 12.1489 249.615 12.2804C249.371 12.4119 249.281 12.7157 249.412 12.959L250.293 12.4828ZM248.496 11.1418C248.613 11.3921 248.911 11.4998 249.162 11.3823C249.412 11.2648 249.52 10.9666 249.402 10.7163L248.496 11.1418ZM245.718 11.063C245.479 11.2012 245.397 11.5075 245.535 11.747C245.673 11.9865 245.979 12.0685 246.219 11.9302L245.718 11.063ZM241.085 14.8942C241.325 14.756 241.407 14.4497 241.268 14.2102C241.13 13.9707 240.824 13.8887 240.584 14.027L241.085 14.8942ZM235.451 16.991C235.211 17.1292 235.129 17.4355 235.267 17.675C235.406 17.9145 235.712 17.9965 235.951 17.8583L235.451 16.991ZM230.818 20.8222C231.057 20.684 231.139 20.3777 231.001 20.1382C230.863 19.8987 230.556 19.8167 230.317 19.955L230.818 20.8222ZM225.183 22.919C224.943 23.0572 224.861 23.3635 225 23.603C225.138 23.8425 225.444 23.9245 225.684 23.7862L225.183 22.919ZM220.55 26.7503C220.789 26.612 220.871 26.3057 220.733 26.0662C220.595 25.8268 220.289 25.7447 220.049 25.883L220.55 26.7503ZM214.915 28.847C214.676 28.9852 214.594 29.2915 214.732 29.531C214.87 29.7705 215.177 29.8525 215.416 29.7143L214.915 28.847ZM210.282 32.6783C210.522 32.54 210.604 32.2337 210.466 31.9942C210.327 31.7548 210.021 31.6727 209.782 31.811L210.282 32.6783ZM204.648 34.775C204.408 34.9132 204.326 35.2195 204.464 35.459C204.603 35.6985 204.909 35.7805 205.148 35.6423L204.648 34.775ZM200.015 38.6063C200.254 38.468 200.336 38.1617 200.198 37.9223C200.06 37.6828 199.753 37.6007 199.514 37.739L200.015 38.6063ZM194.38 40.703C194.141 40.8412 194.059 41.1475 194.197 41.387C194.335 41.6265 194.641 41.7085 194.881 41.5703L194.38 40.703ZM189.747 44.5343C189.987 44.396 190.069 44.0898 189.93 43.8503C189.792 43.6108 189.486 43.5287 189.246 43.667L189.747 44.5343ZM184.113 46.631C183.873 46.7693 183.791 47.0755 183.929 47.315C184.068 47.5545 184.374 47.6365 184.613 47.4983L184.113 46.631ZM179.479 50.4623C179.719 50.324 179.801 50.0178 179.663 49.7783C179.525 49.5388 179.218 49.4567 178.979 49.595L179.479 50.4623ZM173.845 52.559C173.605 52.6973 173.523 53.0035 173.662 53.243C173.8 53.4825 174.106 53.5645 174.346 53.4263L173.845 52.559ZM169.212 56.3903C169.451 56.252 169.533 55.9458 169.395 55.7063C169.257 55.4668 168.951 55.3847 168.711 55.523L169.212 56.3903ZM163.577 58.487C163.338 58.6253 163.256 58.9315 163.394 59.171C163.532 59.4105 163.839 59.4926 164.078 59.3543L163.577 58.487ZM158.944 62.3183C159.184 62.18 159.266 61.8738 159.128 61.6343C158.989 61.3948 158.683 61.3127 158.444 61.451L158.944 62.3183ZM153.31 64.415C153.07 64.5533 152.988 64.8595 153.126 65.099C153.265 65.3385 153.571 65.4206 153.81 65.2823L153.31 64.415ZM148.677 68.2463C148.916 68.108 148.998 67.8018 148.86 67.5623C148.722 67.3228 148.415 67.2407 148.176 67.379L148.677 68.2463ZM143.042 70.343C142.803 70.4813 142.721 70.7875 142.859 71.027C142.997 71.2665 143.303 71.3486 143.543 71.2103L143.042 70.343ZM138.409 74.1743C138.649 74.036 138.731 73.7298 138.592 73.4903C138.454 73.2508 138.148 73.1687 137.908 73.307L138.409 74.1743ZM132.775 76.271C132.535 76.4093 132.453 76.7155 132.591 76.955C132.73 77.1945 133.036 77.2766 133.275 77.1383L132.775 76.271ZM128.141 80.1023C128.381 79.964 128.463 79.6578 128.325 79.4183C128.186 79.1788 127.88 79.0967 127.641 79.235L128.141 80.1023ZM122.507 82.199C122.267 82.3373 122.185 82.6435 122.324 82.883C122.462 83.1225 122.768 83.2046 123.008 83.0663L122.507 82.199ZM117.874 86.0303C118.113 85.892 118.195 85.5858 118.057 85.3463C117.919 85.1068 117.613 85.0247 117.373 85.163L117.874 86.0303ZM112.239 88.127C112 88.2653 111.918 88.5715 112.056 88.811C112.194 89.0505 112.501 89.1326 112.74 88.9943L112.239 88.127ZM107.606 91.9583C107.846 91.82 107.928 91.5138 107.79 91.2743C107.651 91.0348 107.345 90.9528 107.106 91.091L107.606 91.9583ZM101.972 94.055C101.732 94.1933 101.65 94.4996 101.788 94.739C101.927 94.9785 102.233 95.0606 102.472 94.9223L101.972 94.055ZM97.3386 97.8863C97.5781 97.7481 97.6602 97.4418 97.5219 97.2023C97.3836 96.9628 97.0774 96.8808 96.8379 97.019L97.3386 97.8863ZM91.7041 99.983C91.4646 100.121 91.3825 100.428 91.5208 100.667C91.6591 100.907 91.9653 100.989 92.2048 100.85L91.7041 99.983ZM87.071 103.814C87.3105 103.676 87.3926 103.37 87.2543 103.13C87.116 102.891 86.8098 102.809 86.5703 102.947L87.071 103.814ZM81.4365 105.911C81.197 106.049 81.1149 106.356 81.2532 106.595C81.3914 106.835 81.6977 106.917 81.9372 106.778L81.4365 105.911ZM76.8034 109.742C77.0429 109.604 77.1249 109.298 76.9867 109.058C76.8484 108.819 76.5421 108.737 76.3027 108.875L76.8034 109.742ZM71.1688 111.839C70.9294 111.977 70.8473 112.284 70.9856 112.523C71.1238 112.763 71.4301 112.845 71.6696 112.706L71.1688 111.839ZM66.5358 115.67C66.7753 115.532 66.8573 115.226 66.719 114.986C66.5808 114.747 66.2745 114.665 66.035 114.803L66.5358 115.67ZM60.9012 117.767C60.6617 117.905 60.5797 118.212 60.718 118.451C60.8562 118.691 61.1625 118.773 61.402 118.634L60.9012 117.767ZM56.2681 121.598C56.5076 121.46 56.5897 121.154 56.4514 120.914C56.3132 120.675 56.0069 120.593 55.7674 120.731L56.2681 121.598ZM50.6336 123.695C50.3941 123.833 50.3121 124.14 50.4503 124.379C50.5886 124.619 50.8948 124.701 51.1343 124.562L50.6336 123.695ZM46.0005 127.526C46.24 127.388 46.3221 127.082 46.1838 126.842C46.0455 126.603 45.7393 126.521 45.4998 126.659L46.0005 127.526ZM40.366 129.623C40.1265 129.761 40.0444 130.068 40.1827 130.307C40.321 130.547 40.6272 130.629 40.8667 130.49L40.366 129.623ZM35.7329 133.454C35.9724 133.316 36.0545 133.01 35.9162 132.77C35.7779 132.531 35.4717 132.449 35.2322 132.587L35.7329 133.454ZM30.0984 135.551C29.8589 135.689 29.7768 135.996 29.9151 136.235C30.0534 136.475 30.3596 136.557 30.5991 136.418L30.0984 135.551ZM25.4653 139.382C25.7048 139.244 25.7868 138.938 25.6486 138.698C25.5103 138.459 25.2041 138.377 24.9646 138.515L25.4653 139.382ZM22.2455 140.729C22.4411 140.993 22.6335 141.261 22.8225 141.532L23.6442 140.96C23.4498 140.681 23.2519 140.405 23.0507 140.133L22.2455 140.729ZM23.9067 143.187C24.0791 143.467 24.248 143.75 24.4135 144.037L25.2807 143.536C25.1106 143.242 24.9368 142.95 24.7596 142.662L23.9067 143.187ZM24.4135 144.037C24.8702 144.828 25.292 145.63 25.6795 146.44L26.583 146.008C26.1844 145.174 25.7504 144.35 25.2807 143.536L24.4135 144.037ZM27.6278 151.499C28.1478 153.249 28.5223 155.022 28.7558 156.801L29.7488 156.671C29.5085 154.84 29.123 153.015 28.5878 151.214L27.6278 151.499ZM29.0355 162.216C28.9863 164.029 28.7944 165.833 28.4645 167.608L29.4491 167.791C29.7885 165.964 29.986 164.109 30.0366 162.243L29.0355 162.216ZM27.061 172.846C26.459 174.549 25.7235 176.206 24.8593 177.801L25.7398 178.279C26.6291 176.637 27.3858 174.932 28.0052 173.18L27.061 172.846ZM21.9099 182.351C20.8181 183.775 19.6074 185.123 18.2819 186.379L18.9707 187.105C20.3349 185.813 21.581 184.426 22.7046 182.96L21.9099 182.351ZM14.0651 189.786C13.3244 190.294 12.5582 190.777 11.7671 191.234L12.2679 192.101C13.0814 191.631 13.8694 191.134 14.6315 190.612L14.0651 189.786ZM11.5839 191.918L13.0379 194.436L13.9052 193.935L12.4512 191.417L11.5839 191.918ZM15.946 199.473L18.8541 204.51L19.7214 204.009L16.8133 198.972L15.946 199.473ZM21.7622 209.547L24.6702 214.584L25.5375 214.083L22.6295 209.046L21.7622 209.547ZM27.5783 219.621L30.4864 224.658L31.3537 224.157L28.4456 219.12L27.5783 219.621ZM33.3945 229.695L36.3026 234.732L37.1699 234.231L34.2618 229.194L33.3945 229.695ZM39.2107 239.769L42.1188 244.806L42.986 244.305L40.078 239.268L39.2107 239.769ZM45.0268 249.843L47.9349 254.88L48.8022 254.379L45.8941 249.342L45.0268 249.843ZM50.843 259.917L53.7511 264.953L54.6184 264.453L51.7103 259.416L50.843 259.917ZM56.6592 269.99L59.5673 275.027L60.4346 274.527L57.5265 269.49L56.6592 269.99ZM62.4753 280.064L65.3834 285.101L66.2507 284.601L63.3426 279.564L62.4753 280.064ZM68.2915 290.138L71.1996 295.175L72.0669 294.674L69.1588 289.638L68.2915 290.138ZM74.1077 300.212L77.0158 305.249L77.8831 304.748L74.975 299.711L74.1077 300.212ZM79.9239 310.286L82.8319 315.323L83.6992 314.822L80.7911 309.785L79.9239 310.286ZM85.74 320.36L87.1941 322.878L88.0613 322.378L86.6073 319.859L85.74 320.36ZM87.1941 322.878C87.7455 323.834 88.3782 324.713 89.0786 325.513L89.8322 324.854C89.1746 324.103 88.58 323.276 88.0613 322.378L87.1941 322.878ZM94.1954 329.438C96.1409 330.395 98.2598 330.963 100.423 331.107L100.49 330.107C98.4568 329.972 96.4655 329.439 94.6375 328.539L94.1954 329.438ZM106.817 330.266C107.823 329.924 108.811 329.478 109.766 328.927L109.266 328.059C108.367 328.578 107.439 328.996 106.494 329.318L106.817 330.266ZM109.766 328.927L112.351 327.434L111.85 326.567L109.266 328.059L109.766 328.927ZM117.52 324.45L122.689 321.466L122.188 320.598L117.019 323.583L117.52 324.45ZM127.858 318.481L133.027 315.497L132.526 314.63L127.357 317.614L127.858 318.481ZM138.196 312.513L143.365 309.528L142.864 308.661L137.695 311.645L138.196 312.513ZM148.534 306.544L153.703 303.56L153.203 302.692L148.033 305.677L148.534 306.544ZM158.872 300.575L164.041 297.591L163.541 296.724L158.372 299.708L158.872 300.575ZM169.21 294.607L174.379 291.622L173.879 290.755L168.71 293.739L169.21 294.607ZM179.548 288.638L184.717 285.654L184.217 284.786L179.048 287.771L179.548 288.638ZM189.887 282.669L195.056 279.685L194.555 278.818L189.386 281.802L189.887 282.669ZM200.225 276.701L205.394 273.716L204.893 272.849L199.724 275.833L200.225 276.701ZM210.563 270.732L215.732 267.747L215.231 266.88L210.062 269.865L210.563 270.732ZM220.901 264.763L226.07 261.779L225.569 260.911L220.4 263.896L220.901 264.763ZM231.239 258.794L236.408 255.81L235.907 254.943L230.738 257.927L231.239 258.794ZM241.577 252.826L246.746 249.841L246.245 248.974L241.076 251.958L241.577 252.826ZM251.915 246.857L257.084 243.873L256.583 243.005L251.414 245.99L251.915 246.857ZM262.253 240.888L267.422 237.904L266.922 237.037L261.752 240.021L262.253 240.888ZM272.591 234.92L277.76 231.935L277.26 231.068L272.091 234.052L272.591 234.92ZM282.929 228.951L288.098 225.967L287.598 225.099L282.429 228.084L282.929 228.951ZM293.268 222.982L298.437 219.998L297.936 219.131L292.767 222.115L293.268 222.982ZM303.606 217.013L308.775 214.029L308.274 213.162L303.105 216.146L303.606 217.013ZM313.944 211.045L319.113 208.06L318.612 207.193L313.443 210.177L313.944 211.045ZM324.282 205.076L329.451 202.092L328.95 201.224L323.781 204.209L324.282 205.076ZM334.62 199.107L339.789 196.123L339.288 195.256L334.119 198.24L334.62 199.107ZM344.958 193.139L350.127 190.154L349.626 189.287L344.457 192.271L344.958 193.139ZM355.296 187.17L360.465 184.186L359.964 183.318L354.795 186.303L355.296 187.17ZM365.634 181.201L368.219 179.709L367.718 178.842L365.133 180.334L365.634 181.201ZM368.219 179.709C369.174 179.158 370.053 178.525 370.854 177.825L370.194 177.071C369.443 177.729 368.616 178.323 367.718 178.842L368.219 179.709ZM374.778 172.708C375.735 170.762 376.303 168.643 376.447 166.48L375.448 166.414C375.313 168.446 374.779 170.438 373.88 172.266L374.778 172.708ZM375.607 160.086C375.264 159.08 374.818 158.092 374.267 157.137L373.4 157.638C373.918 158.536 374.337 159.464 374.659 160.409L375.607 160.086ZM374.267 157.137L372.813 154.618L371.945 155.119L373.4 157.638L374.267 157.137ZM369.905 149.581L366.997 144.544L366.129 145.045L369.037 150.082L369.905 149.581ZM364.089 139.508L361.18 134.471L360.313 134.971L363.221 140.008L364.089 139.508ZM358.272 129.434L355.364 124.397L354.497 124.897L357.405 129.934L358.272 129.434ZM352.456 119.36L349.548 114.323L348.681 114.824L351.589 119.86L352.456 119.36ZM346.64 109.286L343.732 104.249L342.865 104.75L345.773 109.787L346.64 109.286ZM340.824 99.2119L337.916 94.175L337.048 94.6757L339.957 99.7127L340.824 99.2119ZM335.008 89.138L332.1 84.1011L331.232 84.6018L334.14 89.6388L335.008 89.138ZM329.191 79.0641L326.283 74.0272L325.416 74.5279L328.324 79.5649L329.191 79.0641ZM323.375 68.9902L320.467 63.9533L319.6 64.454L322.508 69.491L323.375 68.9902ZM317.559 58.9163L314.651 53.8794L313.784 54.3801L316.692 59.4171L317.559 58.9163ZM311.743 48.8424L308.835 43.8055L307.968 44.3062L310.876 49.3432L311.743 48.8424ZM305.927 38.7685L303.019 33.7316L302.151 34.2323L305.06 39.2693L305.927 38.7685ZM300.111 28.6946L298.657 26.1762L297.789 26.6769L299.243 29.1954L300.111 28.6946ZM297.973 25.9929C297.182 26.4496 296.38 26.8715 295.57 27.259L296.002 28.1624C296.835 27.7638 297.66 27.3299 298.473 26.8602L297.973 25.9929ZM290.511 29.2073C288.76 29.7272 286.987 30.1018 285.208 30.3353L285.339 31.3282C287.17 31.0879 288.994 30.7024 290.796 30.1673L290.511 29.2073ZM279.794 30.6149C277.98 30.5657 276.177 30.3739 274.401 30.0439L274.219 31.0286C276.045 31.368 277.901 31.5654 279.767 31.616L279.794 30.6149ZM269.164 28.6405C267.461 28.0384 265.803 27.303 264.208 26.4387L263.731 27.3193C265.373 28.2086 267.078 28.9652 268.83 29.5846L269.164 28.6405ZM259.659 23.4893C258.235 22.3976 256.887 21.1868 255.631 19.8613L254.904 20.5501C256.197 21.9143 257.584 23.1604 259.05 24.284L259.659 23.4893ZM252.224 15.6445C251.716 14.9038 251.233 14.1377 250.776 13.3466L249.909 13.8473C250.378 14.6609 250.875 15.4489 251.398 16.2109L252.224 15.6445ZM250.776 13.3466C250.61 13.06 250.45 12.772 250.293 12.4828L249.412 12.959C249.573 13.2565 249.739 13.5526 249.909 13.8473L250.776 13.3466ZM249.402 10.7163C249.262 10.417 249.126 10.1164 248.995 9.81486L248.076 10.2143C248.211 10.5246 248.351 10.8338 248.496 11.1418L249.402 10.7163ZM248.285 9.58095L245.718 11.063L246.219 11.9302L248.786 10.4482L248.285 9.58095ZM240.584 14.027L235.451 16.991L235.951 17.8583L241.085 14.8942L240.584 14.027ZM230.317 19.955L225.183 22.919L225.684 23.7862L230.818 20.8222L230.317 19.955ZM220.049 25.883L214.915 28.847L215.416 29.7143L220.55 26.7503L220.049 25.883ZM209.782 31.811L204.648 34.775L205.148 35.6423L210.282 32.6783L209.782 31.811ZM199.514 37.739L194.38 40.703L194.881 41.5703L200.015 38.6063L199.514 37.739ZM189.246 43.667L184.113 46.631L184.613 47.4983L189.747 44.5343L189.246 43.667ZM178.979 49.595L173.845 52.559L174.346 53.4263L179.479 50.4623L178.979 49.595ZM168.711 55.523L163.577 58.487L164.078 59.3543L169.212 56.3903L168.711 55.523ZM158.444 61.451L153.31 64.415L153.81 65.2823L158.944 62.3183L158.444 61.451ZM148.176 67.379L143.042 70.343L143.543 71.2103L148.677 68.2463L148.176 67.379ZM137.908 73.307L132.775 76.271L133.275 77.1383L138.409 74.1743L137.908 73.307ZM127.641 79.235L122.507 82.199L123.008 83.0663L128.141 80.1023L127.641 79.235ZM117.373 85.163L112.239 88.127L112.74 88.9943L117.874 86.0303L117.373 85.163ZM107.106 91.091L101.972 94.055L102.472 94.9223L107.606 91.9583L107.106 91.091ZM96.8379 97.019L91.7041 99.983L92.2048 100.85L97.3386 97.8863L96.8379 97.019ZM86.5703 102.947L81.4365 105.911L81.9372 106.778L87.071 103.814L86.5703 102.947ZM76.3027 108.875L71.1688 111.839L71.6696 112.706L76.8034 109.742L76.3027 108.875ZM66.035 114.803L60.9012 117.767L61.402 118.634L66.5358 115.67L66.035 114.803ZM55.7674 120.731L50.6336 123.695L51.1343 124.562L56.2681 121.598L55.7674 120.731ZM45.4998 126.659L40.366 129.623L40.8667 130.49L46.0005 127.526L45.4998 126.659ZM35.2322 132.587L30.0984 135.551L30.5991 136.418L35.7329 133.454L35.2322 132.587ZM24.9646 138.515L22.3977 139.997L22.8985 140.864L25.4653 139.382L24.9646 138.515ZM22.6481 140.431L22.1474 139.563L21.1758 140.124L21.843 141.026L22.6481 140.431ZM248.535 10.0146L249.454 9.61512L249.006 8.58637L248.035 9.1473L248.535 10.0146ZM12.0175 191.667L11.5168 190.8L10.6495 191.301L11.1502 192.168L12.0175 191.667ZM298.223 26.4265L299.09 25.9258L298.59 25.0585L297.722 25.5592L298.223 26.4265ZM22.4116 141.818C22.7277 142.272 23.3518 142.384 23.8057 142.068C24.2596 141.752 24.3712 141.127 24.0551 140.674L22.4116 141.818ZM25.186 142.4C24.8961 141.929 24.2793 141.782 23.8083 142.072C23.3372 142.362 23.1904 142.979 23.4803 143.45L25.186 142.4ZM25.2278 146.656C25.4664 147.155 26.0643 147.366 26.5633 147.127C27.0623 146.889 27.2733 146.291 27.0347 145.792L25.2278 146.656ZM29.0678 151.071C28.9103 150.541 28.3528 150.239 27.8226 150.397C27.2924 150.554 26.9903 151.112 27.1478 151.642L29.0678 151.071ZM28.2594 156.866C28.3313 157.415 28.8342 157.801 29.3826 157.729C29.931 157.657 30.3172 157.154 30.2452 156.606L28.2594 156.866ZM30.5371 162.256C30.5521 161.704 30.1161 161.243 29.5632 161.228C29.0103 161.213 28.5499 161.649 28.5349 162.202L30.5371 162.256ZM27.9722 167.517C27.8712 168.06 28.2301 168.583 28.7739 168.684C29.3176 168.785 29.8404 168.426 29.9414 167.883L27.9722 167.517ZM28.4773 173.347C28.6617 172.825 28.3884 172.253 27.867 172.069C27.3455 171.884 26.7733 172.158 26.589 172.679L28.4773 173.347ZM24.419 177.563C24.1556 178.049 24.3362 178.657 24.8225 178.921C25.3089 179.184 25.9167 179.003 26.1801 178.517L24.419 177.563ZM23.102 183.265C23.4385 182.826 23.3555 182.197 22.9166 181.861C22.4776 181.524 21.849 181.607 21.5125 182.046L23.102 183.265ZM17.9375 186.015C17.536 186.395 17.5189 187.029 17.8993 187.431C18.2797 187.832 18.9136 187.849 19.3151 187.469L17.9375 186.015ZM14.9147 191.025C15.3708 190.712 15.487 190.088 15.1742 189.632C14.8613 189.176 14.238 189.06 13.7819 189.373L14.9147 191.025ZM12.6043 194.687C12.8808 195.166 13.4933 195.33 13.9723 195.053C14.4513 194.777 14.6154 194.164 14.3388 193.685L12.6043 194.687ZM17.2469 198.722C16.9704 198.243 16.3579 198.079 15.8789 198.355C15.3999 198.632 15.2358 199.245 15.5124 199.723L17.2469 198.722ZM18.4204 204.76C18.697 205.239 19.3095 205.404 19.7885 205.127C20.2674 204.85 20.4316 204.238 20.155 203.759L18.4204 204.76ZM23.0631 208.796C22.7866 208.317 22.1741 208.153 21.6951 208.429C21.2161 208.706 21.052 209.318 21.3285 209.797L23.0631 208.796ZM24.2366 214.834C24.5131 215.313 25.1256 215.477 25.6046 215.201C26.0836 214.924 26.2477 214.312 25.9712 213.833L24.2366 214.834ZM28.8793 218.87C28.6027 218.391 27.9902 218.227 27.5112 218.503C27.0323 218.78 26.8681 219.392 27.1447 219.871L28.8793 218.87ZM30.0528 224.908C30.3293 225.387 30.9418 225.551 31.4208 225.275C31.8998 224.998 32.0639 224.386 31.7874 223.907L30.0528 224.908ZM34.6954 228.944C34.4189 228.465 33.8064 228.301 33.3274 228.577C32.8484 228.854 32.6843 229.466 32.9609 229.945L34.6954 228.944ZM35.8689 234.982C36.1455 235.461 36.758 235.625 37.237 235.349C37.716 235.072 37.8801 234.46 37.6035 233.981L35.8689 234.982ZM40.5116 239.018C40.2351 238.539 39.6226 238.375 39.1436 238.651C38.6646 238.928 38.5005 239.54 38.777 240.019L40.5116 239.018ZM41.6851 245.056C41.9617 245.535 42.5741 245.699 43.0531 245.423C43.5321 245.146 43.6962 244.534 43.4197 244.055L41.6851 245.056ZM46.3278 249.092C46.0512 248.613 45.4387 248.448 44.9598 248.725C44.4808 249.002 44.3166 249.614 44.5932 250.093L46.3278 249.092ZM47.5013 255.13C47.7778 255.609 48.3903 255.773 48.8693 255.497C49.3483 255.22 49.5124 254.607 49.2359 254.128L47.5013 255.13ZM52.1439 259.165C51.8674 258.686 51.2549 258.522 50.7759 258.799C50.2969 259.075 50.1328 259.688 50.4094 260.167L52.1439 259.165ZM53.3174 265.204C53.594 265.683 54.2065 265.847 54.6855 265.57C55.1645 265.294 55.3286 264.681 55.052 264.202L53.3174 265.204ZM57.9601 269.239C57.6836 268.76 57.0711 268.596 56.5921 268.873C56.1131 269.149 55.949 269.762 56.2255 270.241L57.9601 269.239ZM59.1336 275.278C59.4102 275.757 60.0226 275.921 60.5016 275.644C60.9806 275.368 61.1447 274.755 60.8682 274.276L59.1336 275.278ZM63.7763 279.313C63.4997 278.834 62.8873 278.67 62.4083 278.947C61.9293 279.223 61.7652 279.836 62.0417 280.315L63.7763 279.313ZM64.9498 285.352C65.2263 285.831 65.8388 285.995 66.3178 285.718C66.7968 285.442 66.9609 284.829 66.6844 284.35L64.9498 285.352ZM69.5924 289.387C69.3159 288.908 68.7034 288.744 68.2244 289.021C67.7454 289.297 67.5813 289.91 67.8579 290.389L69.5924 289.387ZM70.766 295.426C71.0425 295.905 71.655 296.069 72.134 295.792C72.613 295.516 72.7771 294.903 72.5005 294.424L70.766 295.426ZM75.4086 299.461C75.1321 298.982 74.5196 298.818 74.0406 299.094C73.5616 299.371 73.3975 299.984 73.674 300.462L75.4086 299.461ZM76.5821 305.499C76.8587 305.978 77.4712 306.143 77.9501 305.866C78.4291 305.589 78.5933 304.977 78.3167 304.498L76.5821 305.499ZM81.2248 309.535C80.9482 309.056 80.3358 308.892 79.8568 309.168C79.3778 309.445 79.2137 310.057 79.4902 310.536L81.2248 309.535ZM82.3983 315.573C82.6748 316.052 83.2873 316.216 83.7663 315.94C84.2453 315.663 84.4094 315.051 84.1329 314.572L82.3983 315.573ZM87.041 319.609C86.7644 319.13 86.1519 318.966 85.6729 319.242C85.1939 319.519 85.0298 320.131 85.3064 320.61L87.041 319.609ZM88.7018 325.843C89.066 326.259 89.6987 326.302 90.1149 325.937C90.5311 325.573 90.5733 324.94 90.209 324.524L88.7018 325.843ZM94.8585 328.09C94.3623 327.846 93.762 328.05 93.5178 328.547C93.2737 329.043 93.478 329.643 93.9743 329.887L94.8585 328.09ZM100.39 331.606C100.942 331.643 101.419 331.225 101.456 330.673C101.492 330.122 101.075 329.645 100.523 329.608L100.39 331.606ZM106.332 328.844C105.809 329.023 105.529 329.592 105.707 330.115C105.886 330.639 106.455 330.919 106.978 330.74L106.332 328.844ZM112.601 327.868C113.08 327.592 113.244 326.979 112.968 326.5C112.691 326.021 112.079 325.857 111.6 326.134L112.601 327.868ZM116.769 323.149C116.29 323.426 116.126 324.038 116.402 324.517C116.679 324.996 117.291 325.16 117.77 324.884L116.769 323.149ZM122.939 321.899C123.418 321.623 123.582 321.01 123.306 320.531C123.029 320.052 122.417 319.888 121.938 320.165L122.939 321.899ZM127.107 317.18C126.628 317.457 126.464 318.069 126.74 318.548C127.017 319.027 127.629 319.192 128.108 318.915L127.107 317.18ZM133.277 315.931C133.756 315.654 133.921 315.042 133.644 314.563C133.367 314.084 132.755 313.92 132.276 314.196L133.277 315.931ZM137.445 311.212C136.966 311.488 136.802 312.101 137.078 312.58C137.355 313.059 137.967 313.223 138.446 312.946L137.445 311.212ZM143.616 309.962C144.095 309.685 144.259 309.073 143.982 308.594C143.706 308.115 143.093 307.951 142.614 308.227L143.616 309.962ZM147.783 305.243C147.304 305.52 147.14 306.132 147.417 306.611C147.693 307.09 148.306 307.254 148.785 306.978L147.783 305.243ZM153.954 303.993C154.433 303.717 154.597 303.104 154.32 302.625C154.044 302.146 153.431 301.982 152.952 302.259L153.954 303.993ZM158.121 299.274C157.642 299.551 157.478 300.163 157.755 300.642C158.031 301.121 158.644 301.285 159.123 301.009L158.121 299.274ZM164.292 298.025C164.771 297.748 164.935 297.136 164.658 296.657C164.382 296.178 163.769 296.013 163.29 296.29L164.292 298.025ZM168.459 293.306C167.98 293.582 167.816 294.195 168.093 294.674C168.369 295.153 168.982 295.317 169.461 295.04L168.459 293.306ZM174.63 292.056C175.109 291.779 175.273 291.167 174.996 290.688C174.72 290.209 174.107 290.045 173.628 290.321L174.63 292.056ZM178.797 287.337C178.318 287.614 178.154 288.226 178.431 288.705C178.707 289.184 179.32 289.348 179.799 289.072L178.797 287.337ZM184.968 286.087C185.447 285.811 185.611 285.198 185.334 284.719C185.058 284.24 184.445 284.076 183.966 284.353L184.968 286.087ZM189.135 281.368C188.656 281.645 188.492 282.257 188.769 282.736C189.045 283.215 189.658 283.379 190.137 283.103L189.135 281.368ZM195.306 280.119C195.785 279.842 195.949 279.229 195.673 278.75C195.396 278.271 194.783 278.107 194.304 278.384L195.306 280.119ZM199.474 275.4C198.995 275.676 198.83 276.289 199.107 276.768C199.384 277.247 199.996 277.411 200.475 277.134L199.474 275.4ZM205.644 274.15C206.123 273.873 206.287 273.261 206.011 272.782C205.734 272.303 205.122 272.139 204.643 272.415L205.644 274.15ZM209.812 269.431C209.333 269.707 209.169 270.32 209.445 270.799C209.722 271.278 210.334 271.442 210.813 271.165L209.812 269.431ZM215.982 268.181C216.461 267.905 216.625 267.292 216.349 266.813C216.072 266.334 215.46 266.17 214.981 266.447L215.982 268.181ZM220.15 263.462C219.671 263.739 219.507 264.351 219.783 264.83C220.06 265.309 220.672 265.473 221.151 265.197L220.15 263.462ZM226.32 262.212C226.799 261.936 226.963 261.323 226.687 260.844C226.41 260.365 225.798 260.201 225.319 260.478L226.32 262.212ZM230.488 257.493C230.009 257.77 229.845 258.383 230.121 258.862C230.398 259.341 231.01 259.505 231.489 259.228L230.488 257.493ZM236.658 256.244C237.137 255.967 237.301 255.355 237.025 254.876C236.748 254.397 236.136 254.233 235.657 254.509L236.658 256.244ZM240.826 251.525C240.347 251.801 240.183 252.414 240.459 252.893C240.736 253.372 241.348 253.536 241.827 253.259L240.826 251.525ZM246.996 250.275C247.475 249.998 247.64 249.386 247.363 248.907C247.086 248.428 246.474 248.264 245.995 248.54L246.996 250.275ZM251.164 245.556C250.685 245.833 250.521 246.445 250.797 246.924C251.074 247.403 251.686 247.567 252.165 247.291L251.164 245.556ZM257.335 244.306C257.814 244.03 257.978 243.417 257.701 242.938C257.425 242.459 256.812 242.295 256.333 242.572L257.335 244.306ZM261.502 239.587C261.023 239.864 260.859 240.476 261.136 240.955C261.412 241.434 262.025 241.598 262.504 241.322L261.502 239.587ZM267.673 238.338C268.152 238.061 268.316 237.449 268.039 236.97C267.763 236.491 267.15 236.326 266.671 236.603L267.673 238.338ZM271.84 233.619C271.361 233.895 271.197 234.508 271.474 234.987C271.75 235.466 272.363 235.63 272.842 235.353L271.84 233.619ZM278.011 232.369C278.49 232.092 278.654 231.48 278.377 231.001C278.101 230.522 277.488 230.358 277.009 230.634L278.011 232.369ZM282.178 227.65C281.699 227.927 281.535 228.539 281.812 229.018C282.088 229.497 282.701 229.661 283.18 229.385L282.178 227.65ZM288.349 226.4C288.828 226.124 288.992 225.511 288.715 225.032C288.439 224.553 287.826 224.389 287.347 224.666L288.349 226.4ZM292.516 221.681C292.037 221.958 291.873 222.57 292.15 223.049C292.426 223.528 293.039 223.692 293.518 223.416L292.516 221.681ZM298.687 220.431C299.166 220.155 299.33 219.542 299.053 219.063C298.777 218.584 298.164 218.42 297.685 218.697L298.687 220.431ZM302.855 215.713C302.376 215.989 302.211 216.602 302.488 217.081C302.764 217.56 303.377 217.724 303.856 217.447L302.855 215.713ZM309.025 214.463C309.504 214.186 309.668 213.574 309.392 213.095C309.115 212.616 308.503 212.452 308.024 212.728L309.025 214.463ZM313.193 209.744C312.714 210.02 312.55 210.633 312.826 211.112C313.103 211.591 313.715 211.755 314.194 211.478L313.193 209.744ZM319.363 208.494C319.842 208.218 320.006 207.605 319.73 207.126C319.453 206.647 318.841 206.483 318.362 206.76L319.363 208.494ZM323.531 203.775C323.052 204.052 322.888 204.664 323.164 205.143C323.441 205.622 324.053 205.786 324.532 205.51L323.531 203.775ZM329.701 202.525C330.18 202.249 330.344 201.636 330.068 201.157C329.791 200.678 329.179 200.514 328.7 200.791L329.701 202.525ZM333.869 197.806C333.39 198.083 333.226 198.695 333.502 199.174C333.779 199.653 334.391 199.818 334.87 199.541L333.869 197.806ZM340.039 196.557C340.518 196.28 340.682 195.668 340.406 195.189C340.129 194.71 339.517 194.546 339.038 194.822L340.039 196.557ZM344.207 191.838C343.728 192.114 343.564 192.727 343.84 193.206C344.117 193.685 344.729 193.849 345.208 193.572L344.207 191.838ZM350.377 190.588C350.856 190.311 351.02 189.699 350.744 189.22C350.467 188.741 349.855 188.577 349.376 188.853L350.377 190.588ZM354.545 185.869C354.066 186.146 353.902 186.758 354.178 187.237C354.455 187.716 355.067 187.88 355.546 187.604L354.545 185.869ZM360.715 184.619C361.194 184.343 361.359 183.73 361.082 183.251C360.805 182.772 360.193 182.608 359.714 182.885L360.715 184.619ZM364.883 179.9C364.404 180.177 364.24 180.789 364.516 181.268C364.793 181.747 365.406 181.911 365.884 181.635L364.883 179.9ZM371.183 178.201C371.6 177.837 371.642 177.205 371.278 176.788C370.913 176.372 370.281 176.33 369.864 176.694L371.183 178.201ZM373.43 172.045C373.186 172.541 373.39 173.141 373.887 173.385C374.383 173.63 374.983 173.425 375.227 172.929L373.43 172.045ZM376.947 166.513C376.983 165.961 376.566 165.484 376.014 165.447C375.462 165.411 374.985 165.828 374.948 166.38L376.947 166.513ZM374.185 160.571C374.363 161.094 374.932 161.374 375.455 161.196C375.979 161.018 376.259 160.449 376.081 159.925L374.185 160.571ZM373.246 154.368C372.97 153.889 372.357 153.725 371.878 154.001C371.399 154.278 371.235 154.89 371.512 155.369L373.246 154.368ZM368.604 150.333C368.88 150.812 369.493 150.976 369.972 150.699C370.451 150.423 370.615 149.81 370.338 149.331L368.604 150.333ZM367.43 144.294C367.154 143.815 366.541 143.651 366.062 143.928C365.583 144.204 365.419 144.817 365.696 145.296L367.43 144.294ZM362.788 140.259C363.064 140.738 363.677 140.902 364.156 140.625C364.635 140.349 364.799 139.736 364.522 139.257L362.788 140.259ZM361.614 134.22C361.338 133.741 360.725 133.577 360.246 133.854C359.767 134.13 359.603 134.743 359.879 135.222L361.614 134.22ZM356.971 130.185C357.248 130.664 357.86 130.828 358.339 130.551C358.818 130.275 358.983 129.662 358.706 129.183L356.971 130.185ZM355.798 124.146C355.521 123.667 354.909 123.503 354.43 123.78C353.951 124.056 353.787 124.669 354.063 125.148L355.798 124.146ZM351.155 120.111C351.432 120.59 352.044 120.754 352.523 120.477C353.002 120.201 353.166 119.588 352.89 119.109L351.155 120.111ZM349.982 114.072C349.705 113.593 349.093 113.429 348.614 113.706C348.135 113.982 347.971 114.595 348.247 115.074L349.982 114.072ZM345.339 110.037C345.616 110.516 346.228 110.68 346.707 110.403C347.186 110.127 347.35 109.514 347.074 109.035L345.339 110.037ZM344.166 103.999C343.889 103.52 343.277 103.355 342.798 103.632C342.319 103.909 342.154 104.521 342.431 105L344.166 103.999ZM339.523 99.963C339.799 100.442 340.412 100.606 340.891 100.33C341.37 100.053 341.534 99.4406 341.257 98.9616L339.523 99.963ZM338.349 93.9246C338.073 93.4456 337.46 93.2815 336.981 93.5581C336.502 93.8346 336.338 94.4471 336.615 94.9261L338.349 93.9246ZM333.707 89.8891C333.983 90.3681 334.596 90.5322 335.075 90.2557C335.554 89.9791 335.718 89.3667 335.441 88.8877L333.707 89.8891ZM332.533 83.8507C332.257 83.3717 331.644 83.2076 331.165 83.4842C330.686 83.7607 330.522 84.3732 330.799 84.8522L332.533 83.8507ZM327.891 79.8152C328.167 80.2942 328.78 80.4583 329.259 80.1818C329.738 79.9052 329.902 79.2928 329.625 78.8138L327.891 79.8152ZM326.717 73.7768C326.441 73.2978 325.828 73.1337 325.349 73.4103C324.87 73.6868 324.706 74.2993 324.982 74.7783L326.717 73.7768ZM322.074 69.7413C322.351 70.2203 322.963 70.3844 323.442 70.1079C323.921 69.8313 324.086 69.2189 323.809 68.7399L322.074 69.7413ZM320.901 63.7029C320.624 63.2239 320.012 63.0598 319.533 63.3364C319.054 63.6129 318.89 64.2254 319.166 64.7044L320.901 63.7029ZM316.258 59.6674C316.535 60.1464 317.147 60.3105 317.626 60.034C318.105 59.7574 318.269 59.145 317.993 58.666L316.258 59.6674ZM315.085 53.629C314.808 53.15 314.196 52.9859 313.717 53.2625C313.238 53.539 313.074 54.1515 313.35 54.6305L315.085 53.629ZM310.442 49.5935C310.719 50.0725 311.331 50.2366 311.81 49.9601C312.289 49.6835 312.453 49.0711 312.177 48.5921L310.442 49.5935ZM309.269 43.5551C308.992 43.0761 308.38 42.912 307.901 43.1886C307.422 43.4651 307.257 44.0776 307.534 44.5566L309.269 43.5551ZM304.626 39.5196C304.902 39.9986 305.515 40.1627 305.994 39.8862C306.473 39.6096 306.637 38.9972 306.36 38.5182L304.626 39.5196ZM303.452 33.4812C303.176 33.0022 302.563 32.8381 302.084 33.1147C301.605 33.3912 301.441 34.0037 301.718 34.4827L303.452 33.4812ZM298.81 29.4457C299.086 29.9247 299.699 30.0888 300.178 29.8123C300.657 29.5357 300.821 28.9233 300.544 28.4443L298.81 29.4457ZM295.354 26.8072C294.855 27.0458 294.644 27.6438 294.882 28.1428C295.121 28.6417 295.719 28.8528 296.218 28.6142L295.354 26.8072ZM290.938 30.6473C291.468 30.4898 291.771 29.9323 291.613 29.4021C291.456 28.8719 290.898 28.5698 290.368 28.7273L290.938 30.6473ZM285.143 29.8388C284.595 29.9108 284.209 30.4137 284.281 30.9621C284.353 31.5105 284.856 31.8966 285.404 31.8247L285.143 29.8388ZM279.753 32.1165C280.306 32.1316 280.766 31.6955 280.781 31.1426C280.796 30.5897 280.36 30.1294 279.807 30.1144L279.753 32.1165ZM274.493 29.5516C273.949 29.4506 273.426 29.8095 273.325 30.3533C273.224 30.8971 273.583 31.4198 274.127 31.5209L274.493 29.5516ZM268.663 30.0567C269.184 30.2411 269.756 29.9679 269.941 29.4464C270.125 28.925 269.852 28.3528 269.331 28.1684L268.663 30.0567ZM264.447 25.9985C263.96 25.735 263.353 25.9157 263.089 26.402C262.826 26.8883 263.006 27.4961 263.493 27.7596L264.447 25.9985ZM258.745 24.6814C259.184 25.018 259.812 24.9349 260.149 24.496C260.486 24.0571 260.403 23.4284 259.964 23.0919L258.745 24.6814ZM255.995 19.517C255.614 19.1155 254.98 19.0984 254.579 19.4788C254.177 19.8592 254.16 20.493 254.541 20.8945L255.995 19.517ZM250.985 16.4941C251.298 16.9502 251.921 17.0664 252.377 16.7536C252.833 16.4408 252.95 15.8174 252.637 15.3613L250.985 16.4941ZM250.734 12.2447C250.471 11.7582 249.863 11.5769 249.377 11.8399C248.89 12.1028 248.709 12.7105 248.972 13.197L250.734 12.2447ZM248.042 11.3546C248.277 11.8552 248.874 12.0706 249.374 11.8356C249.875 11.6006 250.09 11.0042 249.855 10.5035L248.042 11.3546ZM245.468 10.6293C244.989 10.9058 244.825 11.5183 245.101 11.9973C245.378 12.4763 245.99 12.6404 246.469 12.3639L245.468 10.6293ZM241.335 15.3279C241.814 15.0513 241.979 14.4389 241.702 13.9599C241.425 13.4809 240.813 13.3168 240.334 13.5933L241.335 15.3279ZM235.2 16.5573C234.721 16.8339 234.557 17.4463 234.834 17.9253C235.11 18.4043 235.723 18.5684 236.202 18.2919L235.2 16.5573ZM231.068 21.2559C231.547 20.9793 231.711 20.3669 231.434 19.8879C231.158 19.4089 230.545 19.2448 230.066 19.5213L231.068 21.2559ZM224.933 22.4853C224.454 22.7619 224.29 23.3743 224.566 23.8533C224.843 24.3323 225.455 24.4964 225.934 24.2199L224.933 22.4853ZM220.8 27.1839C221.279 26.9074 221.443 26.2949 221.167 25.8159C220.89 25.3369 220.278 25.1728 219.799 25.4493L220.8 27.1839ZM214.665 28.4133C214.186 28.6899 214.022 29.3024 214.298 29.7813C214.575 30.2603 215.187 30.4244 215.666 30.1479L214.665 28.4133ZM210.533 33.1119C211.012 32.8354 211.176 32.2229 210.899 31.7439C210.623 31.2649 210.01 31.1008 209.531 31.3773L210.533 33.1119ZM204.397 34.3413C203.918 34.6179 203.754 35.2304 204.031 35.7093C204.307 36.1883 204.92 36.3525 205.399 36.0759L204.397 34.3413ZM200.265 39.0399C200.744 38.7634 200.908 38.1509 200.632 37.6719C200.355 37.1929 199.743 37.0288 199.264 37.3053L200.265 39.0399ZM194.13 40.2693C193.651 40.5459 193.487 41.1584 193.763 41.6374C194.04 42.1163 194.652 42.2805 195.131 42.0039L194.13 40.2693ZM189.997 44.9679C190.476 44.6914 190.641 44.0789 190.364 43.5999C190.087 43.1209 189.475 42.9568 188.996 43.2333L189.997 44.9679ZM183.862 46.1973C183.383 46.4739 183.219 47.0864 183.496 47.5653C183.772 48.0443 184.385 48.2085 184.864 47.9319L183.862 46.1973ZM179.73 50.8959C180.209 50.6194 180.373 50.0069 180.096 49.5279C179.82 49.0489 179.207 48.8848 178.728 49.1613L179.73 50.8959ZM173.595 52.1253C173.116 52.4019 172.952 53.0144 173.228 53.4934C173.505 53.9723 174.117 54.1365 174.596 53.8599L173.595 52.1253ZM169.462 56.8239C169.941 56.5474 170.105 55.9349 169.829 55.4559C169.552 54.9769 168.94 54.8128 168.461 55.0893L169.462 56.8239ZM163.327 58.0533C162.848 58.3299 162.684 58.9424 162.96 59.4214C163.237 59.9003 163.849 60.0645 164.328 59.7879L163.327 58.0533ZM159.195 62.7519C159.674 62.4754 159.838 61.8629 159.561 61.3839C159.285 60.9049 158.672 60.7408 158.193 61.0173L159.195 62.7519ZM153.059 63.9813C152.58 64.2579 152.416 64.8704 152.693 65.3494C152.969 65.8284 153.582 65.9925 154.061 65.7159L153.059 63.9813ZM148.927 68.6799C149.406 68.4034 149.57 67.7909 149.294 67.3119C149.017 66.8329 148.405 66.6688 147.926 66.9453L148.927 68.6799ZM142.792 69.9094C142.313 70.1859 142.149 70.7984 142.425 71.2774C142.702 71.7564 143.314 71.9205 143.793 71.6439L142.792 69.9094ZM138.659 74.6079C139.138 74.3314 139.303 73.7189 139.026 73.2399C138.749 72.7609 138.137 72.5968 137.658 72.8734L138.659 74.6079ZM132.524 75.8374C132.045 76.1139 131.881 76.7264 132.158 77.2054C132.434 77.6844 133.047 77.8485 133.526 77.5719L132.524 75.8374ZM128.392 80.5359C128.871 80.2594 129.035 79.6469 128.758 79.1679C128.482 78.6889 127.869 78.5248 127.39 78.8014L128.392 80.5359ZM122.257 81.7654C121.778 82.0419 121.613 82.6544 121.89 83.1334C122.167 83.6124 122.779 83.7765 123.258 83.4999L122.257 81.7654ZM118.124 86.464C118.603 86.1874 118.767 85.5749 118.491 85.0959C118.214 84.6169 117.602 84.4528 117.123 84.7294L118.124 86.464ZM111.989 87.6934C111.51 87.9699 111.346 88.5824 111.622 89.0614C111.899 89.5404 112.511 89.7045 112.99 89.428L111.989 87.6934ZM107.857 92.392C108.336 92.1154 108.5 91.5029 108.223 91.0239C107.947 90.545 107.334 90.3808 106.855 90.6574L107.857 92.392ZM101.721 93.6214C101.242 93.8979 101.078 94.5104 101.355 94.9894C101.631 95.4684 102.244 95.6325 102.723 95.356L101.721 93.6214ZM97.589 98.32C98.068 98.0434 98.2321 97.4309 97.9555 96.952C97.679 96.473 97.0665 96.3088 96.5875 96.5854L97.589 98.32ZM91.4537 99.5494C90.9747 99.8259 90.8106 100.438 91.0872 100.917C91.3637 101.396 91.9762 101.561 92.4552 101.284L91.4537 99.5494ZM87.3214 104.248C87.8004 103.971 87.9645 103.359 87.6879 102.88C87.4114 102.401 86.7989 102.237 86.3199 102.513L87.3214 104.248ZM81.1861 105.477C80.7071 105.754 80.543 106.366 80.8195 106.845C81.0961 107.324 81.7086 107.489 82.1875 107.212L81.1861 105.477ZM77.0538 110.176C77.5327 109.899 77.6969 109.287 77.4203 108.808C77.1438 108.329 76.5313 108.165 76.0523 108.441L77.0538 110.176ZM70.9185 111.405C70.4395 111.682 70.2754 112.294 70.5519 112.773C70.8285 113.252 71.4409 113.417 71.9199 113.14L70.9185 111.405ZM66.7861 116.104C67.2651 115.827 67.4292 115.215 67.1527 114.736C66.8761 114.257 66.2637 114.093 65.7847 114.369L66.7861 116.104ZM60.6509 117.333C60.1719 117.61 60.0078 118.222 60.2843 118.701C60.5609 119.18 61.1733 119.345 61.6523 119.068L60.6509 117.333ZM56.5185 122.032C56.9975 121.755 57.1616 121.143 56.8851 120.664C56.6085 120.185 55.996 120.021 55.5171 120.297L56.5185 122.032ZM50.3832 123.261C49.9043 123.538 49.7401 124.15 50.0167 124.629C50.2932 125.108 50.9057 125.273 51.3847 124.996L50.3832 123.261ZM46.2509 127.96C46.7299 127.683 46.894 127.071 46.6175 126.592C46.3409 126.113 45.7284 125.949 45.2494 126.225L46.2509 127.96ZM40.1156 129.189C39.6366 129.466 39.4725 130.078 39.7491 130.557C40.0256 131.036 40.6381 131.201 41.1171 130.924L40.1156 129.189ZM35.9833 133.888C36.4623 133.611 36.6264 132.999 36.3498 132.52C36.0733 132.041 35.4608 131.877 34.9818 132.153L35.9833 133.888ZM29.848 135.117C29.369 135.394 29.2049 136.007 29.4814 136.485C29.758 136.964 30.3705 137.129 30.8495 136.852L29.848 135.117ZM25.7157 139.816C26.1946 139.54 26.3588 138.927 26.0822 138.448C25.8057 137.969 25.1932 137.805 24.7142 138.081L25.7157 139.816ZM21.843 141.026C22.0357 141.287 22.2253 141.551 22.4116 141.818L24.0551 140.674C23.858 140.391 23.6573 140.111 23.4532 139.835L21.843 141.026ZM23.4803 143.45C23.6502 143.726 23.8167 144.005 23.9798 144.287L25.7144 143.286C25.5419 142.987 25.3657 142.692 25.186 142.4L23.4803 143.45ZM23.9798 144.287C24.4301 145.067 24.8459 145.857 25.2278 146.656L27.0347 145.792C26.6305 144.947 26.1906 144.111 25.7144 143.286L23.9798 144.287ZM27.1478 151.642C27.6602 153.366 28.0293 155.113 28.2594 156.866L30.2452 156.606C30.0015 154.749 29.6106 152.898 29.0678 151.071L27.1478 151.642ZM28.5349 162.202C28.4865 163.99 28.2974 165.767 27.9722 167.517L29.9414 167.883C30.2856 166.03 30.4858 164.149 30.5371 162.256L28.5349 162.202ZM26.589 172.679C25.9956 174.357 25.2707 175.991 24.419 177.563L26.1801 178.517C27.0819 176.852 27.8492 175.123 28.4773 173.347L26.589 172.679ZM21.5125 182.046C20.4367 183.449 19.2436 184.778 17.9375 186.015L19.3151 187.469C20.6986 186.158 21.9625 184.751 23.102 183.265L21.5125 182.046ZM13.7819 189.373C13.0518 189.873 12.2967 190.35 11.5168 190.8L12.5182 192.535C13.343 192.058 14.142 191.555 14.9147 191.025L13.7819 189.373ZM11.1502 192.168L12.6043 194.687L14.3388 193.685L12.8848 191.167L11.1502 192.168ZM15.5124 199.723L18.4204 204.76L20.155 203.759L17.2469 198.722L15.5124 199.723ZM21.3285 209.797L24.2366 214.834L25.9712 213.833L23.0631 208.796L21.3285 209.797ZM27.1447 219.871L30.0528 224.908L31.7874 223.907L28.8793 218.87L27.1447 219.871ZM32.9609 229.945L35.8689 234.982L37.6035 233.981L34.6954 228.944L32.9609 229.945ZM38.777 240.019L41.6851 245.056L43.4197 244.055L40.5116 239.018L38.777 240.019ZM44.5932 250.093L47.5013 255.13L49.2359 254.128L46.3278 249.092L44.5932 250.093ZM50.4094 260.167L53.3174 265.204L55.052 264.202L52.1439 259.165L50.4094 260.167ZM56.2255 270.241L59.1336 275.278L60.8682 274.276L57.9601 269.239L56.2255 270.241ZM62.0417 280.315L64.9498 285.352L66.6844 284.35L63.7763 279.313L62.0417 280.315ZM67.8579 290.389L70.766 295.426L72.5005 294.424L69.5924 289.387L67.8579 290.389ZM73.674 300.462L76.5821 305.499L78.3167 304.498L75.4086 299.461L73.674 300.462ZM79.4902 310.536L82.3983 315.573L84.1329 314.572L81.2248 309.535L79.4902 310.536ZM85.3064 320.61L86.7604 323.129L88.495 322.127L87.041 319.609L85.3064 320.61ZM86.7604 323.129C87.3283 324.112 87.9801 325.019 88.7018 325.843L90.209 324.524C89.5728 323.797 88.9973 322.997 88.495 322.127L86.7604 323.129ZM93.9743 329.887C95.9785 330.873 98.1613 331.458 100.39 331.606L100.523 329.608C98.5553 329.477 96.6279 328.961 94.8585 328.09L93.9743 329.887ZM106.978 330.74C108.016 330.387 109.033 329.928 110.017 329.36L109.015 327.626C108.145 328.128 107.247 328.533 106.332 328.844L106.978 330.74ZM110.017 329.36L112.601 327.868L111.6 326.134L109.015 327.626L110.017 329.36ZM117.77 324.884L122.939 321.899L121.938 320.165L116.769 323.149L117.77 324.884ZM128.108 318.915L133.277 315.931L132.276 314.196L127.107 317.18L128.108 318.915ZM138.446 312.946L143.616 309.962L142.614 308.227L137.445 311.212L138.446 312.946ZM148.785 306.978L153.954 303.993L152.952 302.259L147.783 305.243L148.785 306.978ZM159.123 301.009L164.292 298.025L163.29 296.29L158.121 299.274L159.123 301.009ZM169.461 295.04L174.63 292.056L173.628 290.321L168.459 293.306L169.461 295.04ZM179.799 289.072L184.968 286.087L183.966 284.353L178.797 287.337L179.799 289.072ZM190.137 283.103L195.306 280.119L194.304 278.384L189.135 281.368L190.137 283.103ZM200.475 277.134L205.644 274.15L204.643 272.415L199.474 275.4L200.475 277.134ZM210.813 271.165L215.982 268.181L214.981 266.447L209.812 269.431L210.813 271.165ZM221.151 265.197L226.32 262.212L225.319 260.478L220.15 263.462L221.151 265.197ZM231.489 259.228L236.658 256.244L235.657 254.509L230.488 257.493L231.489 259.228ZM241.827 253.259L246.996 250.275L245.995 248.54L240.826 251.525L241.827 253.259ZM252.165 247.291L257.335 244.306L256.333 242.572L251.164 245.556L252.165 247.291ZM262.504 241.322L267.673 238.338L266.671 236.603L261.502 239.587L262.504 241.322ZM272.842 235.353L278.011 232.369L277.009 230.634L271.84 233.619L272.842 235.353ZM283.18 229.385L288.349 226.4L287.347 224.666L282.178 227.65L283.18 229.385ZM293.518 223.416L298.687 220.431L297.685 218.697L292.516 221.681L293.518 223.416ZM303.856 217.447L309.025 214.463L308.024 212.728L302.855 215.713L303.856 217.447ZM314.194 211.478L319.363 208.494L318.362 206.76L313.193 209.744L314.194 211.478ZM324.532 205.51L329.701 202.525L328.7 200.791L323.531 203.775L324.532 205.51ZM334.87 199.541L340.039 196.557L339.038 194.822L333.869 197.806L334.87 199.541ZM345.208 193.572L350.377 190.588L349.376 188.853L344.207 191.838L345.208 193.572ZM355.546 187.604L360.715 184.619L359.714 182.885L354.545 185.869L355.546 187.604ZM365.884 181.635L368.469 180.143L367.467 178.408L364.883 179.9L365.884 181.635ZM368.469 180.143C369.453 179.575 370.359 178.923 371.183 178.201L369.864 176.694C369.137 177.33 368.337 177.906 367.467 178.408L368.469 180.143ZM375.227 172.929C376.214 170.925 376.798 168.742 376.947 166.513L374.948 166.38C374.817 168.348 374.301 170.275 373.43 172.045L375.227 172.929ZM376.081 159.925C375.727 158.888 375.268 157.87 374.7 156.886L372.966 157.888C373.468 158.758 373.873 159.656 374.185 160.571L376.081 159.925ZM374.7 156.886L373.246 154.368L371.512 155.369L372.966 157.888L374.7 156.886ZM370.338 149.331L367.43 144.294L365.696 145.296L368.604 150.333L370.338 149.331ZM364.522 139.257L361.614 134.22L359.879 135.222L362.788 140.259L364.522 139.257ZM358.706 129.183L355.798 124.146L354.063 125.148L356.971 130.185L358.706 129.183ZM352.89 119.109L349.982 114.072L348.247 115.074L351.155 120.111L352.89 119.109ZM347.074 109.035L344.166 103.999L342.431 105L345.339 110.037L347.074 109.035ZM341.257 98.9616L338.349 93.9246L336.615 94.9261L339.523 99.963L341.257 98.9616ZM335.441 88.8877L332.533 83.8507L330.799 84.8522L333.707 89.8891L335.441 88.8877ZM329.625 78.8138L326.717 73.7768L324.982 74.7783L327.891 79.8152L329.625 78.8138ZM323.809 68.7399L320.901 63.7029L319.166 64.7044L322.074 69.7413L323.809 68.7399ZM317.993 58.666L315.085 53.629L313.35 54.6305L316.258 59.6674L317.993 58.666ZM312.177 48.5921L309.269 43.5551L307.534 44.5566L310.442 49.5935L312.177 48.5921ZM306.36 38.5182L303.452 33.4812L301.718 34.4827L304.626 39.5196L306.36 38.5182ZM300.544 28.4443L299.09 25.9258L297.356 26.9273L298.81 29.4457L300.544 28.4443ZM297.722 25.5592C296.942 26.0095 296.152 26.4253 295.354 26.8072L296.218 28.6142C297.063 28.21 297.899 27.77 298.724 27.2938L297.722 25.5592ZM290.368 28.7273C288.643 29.2396 286.896 29.6087 285.143 29.8388L285.404 31.8247C287.261 31.581 289.111 31.19 290.938 30.6473L290.368 28.7273ZM279.807 30.1144C278.02 30.0659 276.243 29.8768 274.493 29.5516L274.127 31.5209C275.979 31.865 277.861 32.0652 279.753 32.1165L279.807 30.1144ZM269.331 28.1684C267.652 27.575 266.019 26.8502 264.447 25.9985L263.493 27.7596C265.157 28.6614 266.887 29.4287 268.663 30.0567L269.331 28.1684ZM259.964 23.0919C258.56 22.0161 257.232 20.8231 255.995 19.517L254.541 20.8945C255.852 22.2781 257.259 23.5419 258.745 24.6814L259.964 23.0919ZM252.637 15.3613C252.136 14.6313 251.66 13.8761 251.21 13.0962L249.475 14.0977C249.951 14.9224 250.455 15.7214 250.985 16.4941L252.637 15.3613ZM251.21 13.0962C251.046 12.8137 250.888 12.5298 250.734 12.2447L248.972 13.197C249.135 13.4987 249.303 13.7989 249.475 14.0977L251.21 13.0962ZM249.855 10.5035C249.717 10.2085 249.583 9.91234 249.454 9.61512L247.617 10.4141C247.754 10.7287 247.896 11.0423 248.042 11.3546L249.855 10.5035ZM248.035 9.1473L245.468 10.6293L246.469 12.3639L249.036 10.8819L248.035 9.1473ZM240.334 13.5933L235.2 16.5573L236.202 18.2919L241.335 15.3279L240.334 13.5933ZM230.066 19.5213L224.933 22.4853L225.934 24.2199L231.068 21.2559L230.066 19.5213ZM219.799 25.4493L214.665 28.4133L215.666 30.1479L220.8 27.1839L219.799 25.4493ZM209.531 31.3773L204.397 34.3413L205.399 36.0759L210.533 33.1119L209.531 31.3773ZM199.264 37.3053L194.13 40.2693L195.131 42.0039L200.265 39.0399L199.264 37.3053ZM188.996 43.2333L183.862 46.1973L184.864 47.9319L189.997 44.9679L188.996 43.2333ZM178.728 49.1613L173.595 52.1253L174.596 53.8599L179.73 50.8959L178.728 49.1613ZM168.461 55.0893L163.327 58.0533L164.328 59.7879L169.462 56.8239L168.461 55.0893ZM158.193 61.0173L153.059 63.9813L154.061 65.7159L159.195 62.7519L158.193 61.0173ZM147.926 66.9453L142.792 69.9094L143.793 71.6439L148.927 68.6799L147.926 66.9453ZM137.658 72.8734L132.524 75.8374L133.526 77.5719L138.659 74.6079L137.658 72.8734ZM127.39 78.8014L122.257 81.7654L123.258 83.4999L128.392 80.5359L127.39 78.8014ZM117.123 84.7294L111.989 87.6934L112.99 89.428L118.124 86.464L117.123 84.7294ZM106.855 90.6574L101.721 93.6214L102.723 95.356L107.857 92.392L106.855 90.6574ZM96.5875 96.5854L91.4537 99.5494L92.4552 101.284L97.589 98.32L96.5875 96.5854ZM86.3199 102.513L81.1861 105.477L82.1875 107.212L87.3214 104.248L86.3199 102.513ZM76.0523 108.441L70.9185 111.405L71.9199 113.14L77.0538 110.176L76.0523 108.441ZM65.7847 114.369L60.6509 117.333L61.6523 119.068L66.7861 116.104L65.7847 114.369ZM55.5171 120.297L50.3832 123.261L51.3847 124.996L56.5185 122.032L55.5171 120.297ZM45.2494 126.225L40.1156 129.189L41.1171 130.924L46.2509 127.96L45.2494 126.225ZM34.9818 132.153L29.848 135.117L30.8495 136.852L35.9833 133.888L34.9818 132.153ZM24.7142 138.081L22.1474 139.563L23.1488 141.298L25.7157 139.816L24.7142 138.081Z" fill="#C4C4C4" mask="url(#path-1-inside-1_86_704)"/>
</g>
<defs>
<filter id="filter0_d_86_704" x="0" y="0" width="388" height="344.663" filterUnits="userSpaceOnUse" color-interpolation-filters="sRGB">
<feFlood flood-opacity="0" result="BackgroundImageFix"/>
<feColorMatrix in="SourceAlpha" type="matrix" values="0 0 0 0 0 0 0 0 0 0 0 0 0 0 0 0 0 0 127 0" result="hardAlpha"/>
<feOffset dy="2"/>
<feGaussianBlur stdDeviation="6"/>
<feColorMatrix type="matrix" values="0 0 0 0 0.5 0 0 0 0 0.5 0 0 0 0 0.5 0 0 0 0.16 0"/>
<feBlend mode="normal" in2="BackgroundImageFix" result="effect1_dropShadow_86_704"/>
<feBlend mode="normal" in="SourceGraphic" in2="effect1_dropShadow_86_704" result="shape"/>
</filter>
</defs>
</svg>
