<svg width="27" height="22" viewBox="0 0 27 22" fill="none" xmlns="http://www.w3.org/2000/svg">
<path opacity="0.35" d="M1.59782 10.7181L18.7803 0.797754C19.8258 0.194153 21.1626 0.552357 21.7662 1.59782L25.6334 8.29607C26.237 9.34154 25.8788 10.6784 24.8334 11.282L7.65089 21.2023C6.60542 21.8059 5.26859 21.4477 4.66499 20.4022L0.797754 13.704C0.194154 12.6585 0.552357 11.3217 1.59782 10.7181Z" stroke="#090A0A"/>
<path opacity="0.4" d="M23.9477 3.05634L25.9654 6.55107C26.4976 5.84917 26.5573 4.89666 26.1169 4.13381C25.6764 3.37097 24.8217 2.9464 23.9477 3.05634" fill="#090A0A"/>
<path d="M2.87498 13.6696C2.50353 13.0262 2.72396 12.2035 3.36733 11.8321L18.6859 2.98791C19.3293 2.61646 20.1519 2.83689 20.5234 3.48026L23.3801 8.42822C23.7515 9.07159 23.5311 9.89425 22.8877 10.2657L7.56916 19.1099C6.9258 19.4813 6.10313 19.2609 5.73169 18.6175L2.87498 13.6696Z" fill="#090A0A"/>
</svg>
