<svg width="28" height="28" viewBox="0 0 28 28" fill="none" xmlns="http://www.w3.org/2000/svg">
<g clip-path="url(#clip0_86_164)">
<path d="M23.7061 13.4949L24.9871 15.7138C25.1069 15.9193 25.1824 16.1476 25.2089 16.384C25.2353 16.6203 25.2121 16.8596 25.1407 17.0865C25.0693 17.3134 24.9513 17.5229 24.7943 17.7016C24.6373 17.8802 24.4447 18.0241 24.2288 18.124C21.81 19.1907 19.1748 19.6752 16.5347 19.5386C14.092 19.4348 11.7021 18.7944 9.53474 17.6629C7.1707 16.4551 5.12443 14.7073 3.5617 12.5613C3.42513 12.3674 3.33042 12.1472 3.28361 11.9148C3.23679 11.6823 3.23889 11.4426 3.28978 11.211C3.34067 10.9794 3.43922 10.7609 3.57917 10.5695C3.71912 10.378 3.8974 10.2178 4.10266 10.0991L6.32157 8.81798C6.67848 8.60721 7.09985 8.5334 7.50715 8.61033C7.91445 8.68726 8.27988 8.90967 8.53533 9.2361C9.03897 9.89212 9.6152 10.4891 10.253 11.0156C10.5054 11.2228 10.693 11.4981 10.7937 11.8088C10.8944 12.1194 10.904 12.4524 10.8212 12.7684L10.4242 14.25C12.5462 15.4938 14.9646 16.1418 17.4242 16.1257L17.8212 14.644C17.9075 14.329 18.0823 14.0454 18.3248 13.8267C18.5674 13.608 18.8675 13.4635 19.1897 13.4101C20.0053 13.2731 20.8028 13.0442 21.567 12.7279C21.9556 12.5712 22.3882 12.5627 22.7826 12.7041C23.177 12.8455 23.5056 13.127 23.7061 13.4949Z" stroke="white" stroke-width="1.5" stroke-linecap="round" stroke-linejoin="round"/>
</g>
<defs>
<clipPath id="clip0_86_164">
<rect width="20" height="20" fill="white" transform="translate(0 10.2487) scale(1.02487) rotate(-30)"/>
</clipPath>
</defs>
</svg>
